<?xml version="1.0" standalone="no"?>
<!DOCTYPE svg PUBLIC "-//W3C//DTD SVG 20010904//EN"
 "http://www.w3.org/TR/2001/REC-SVG-20010904/DTD/svg10.dtd">
<svg version="1.0" xmlns="http://www.w3.org/2000/svg"
 width="2500.000000pt" height="2500.000000pt" viewBox="0 0 2500.000000 2500.000000"
 preserveAspectRatio="xMidYMid meet">
<metadata>
Created by potrace 1.14, written by Peter Selinger 2001-2017
</metadata>
<g transform="translate(0.000000,2500.000000) scale(0.100000,-0.100000)"
fill="#000000" stroke="none">
<path d="M0 12500 l0 -12500 12500 0 12500 0 0 12500 0 12500 -12500 0 -12500
0 0 -12500z m12320 10650 c0 -5 -4 -10 -10 -10 -5 0 -10 5 -10 10 0 6 5 10 10
10 6 0 10 -4 10 -10z m425 0 c4 -6 -8 -10 -30 -10 -22 0 -34 4 -30 10 3 6 17
10 30 10 13 0 27 -4 30 -10z m-612 -7 c-7 -2 -19 -2 -25 0 -7 3 -2 5 12 5 14
0 19 -2 13 -5z m757 3 c0 -3 -4 -8 -10 -11 -5 -3 -10 -1 -10 4 0 6 5 11 10 11
6 0 10 -2 10 -4z m115 -6 c3 -5 1 -10 -4 -10 -6 0 -11 5 -11 10 0 6 2 10 4 10
3 0 8 -4 11 -10z m-1062 -12 c40 -16 289 -13 267 3 -15 11 -3 9 52 -8 12 -3
19 -2 15 3 -3 6 25 7 76 2 46 -4 118 -5 162 0 44 4 121 5 170 2 50 -3 98 -2
109 3 13 6 16 6 12 -2 -5 -8 13 -11 56 -12 154 -3 306 -9 319 -13 8 -2 59 -7
114 -11 127 -8 190 -13 290 -25 44 -5 123 -14 175 -20 317 -34 719 -103 1115
-190 72 -16 138 -31 148 -35 10 -4 17 -3 17 5 0 7 5 6 15 -4 12 -12 90 -35
140 -42 6 0 17 -4 25 -7 8 -3 44 -14 80 -23 88 -22 103 -25 120 -27 8 -1 17
-4 20 -8 3 -3 38 -15 79 -27 59 -17 76 -19 83 -10 7 12 12 4 10 -13 -1 -4 20
-12 45 -18 37 -10 48 -9 56 1 6 9 7 8 3 -4 -3 -12 0 -18 9 -19 19 -2 24 -3 60
-18 17 -7 39 -13 50 -14 11 0 23 -6 27 -12 5 -6 8 -5 8 4 0 12 2 12 13 -1 6
-8 68 -34 137 -58 215 -74 624 -237 803 -320 37 -17 72 -28 79 -24 6 4 8 3 5
-3 -4 -6 8 -17 26 -24 44 -17 448 -218 577 -286 331 -176 581 -329 1033 -633
95 -64 509 -370 527 -390 3 -3 23 -18 45 -35 22 -16 82 -65 133 -108 82 -68
96 -76 110 -65 15 11 15 11 4 -3 -10 -14 -4 -23 45 -65 77 -64 236 -207 244
-218 9 -11 31 3 24 15 -4 5 -1 9 4 9 14 0 14 -17 0 -25 -12 -8 470 -482 485
-477 6 2 8 0 3 -4 -9 -10 23 -45 35 -38 4 3 7 1 6 -5 -2 -5 48 -67 111 -136
85 -93 117 -123 124 -113 6 10 7 8 3 -4 -6 -21 111 -161 127 -151 6 4 7 1 2
-6 -9 -15 43 -73 58 -64 6 3 7 1 3 -5 -7 -12 160 -218 175 -214 6 1 8 -2 5 -7
-4 -5 29 -54 72 -108 42 -54 112 -146 155 -205 61 -84 82 -106 97 -103 12 2
18 0 15 -6 -4 -5 -11 -7 -16 -4 -19 12 -6 -8 104 -167 63 -90 133 -194 156
-231 38 -59 45 -66 60 -55 14 12 14 11 3 -4 -12 -15 -11 -23 9 -54 20 -33 24
-35 34 -20 11 15 13 15 19 1 3 -9 2 -13 -3 -10 -5 3 -12 1 -16 -4 -8 -14 86
-162 98 -154 6 3 7 1 3 -6 -4 -6 23 -63 62 -129 349 -591 686 -1326 897 -1959
22 -67 42 -110 48 -106 6 3 7 1 3 -5 -4 -7 22 -110 58 -229 68 -228 152 -541
183 -680 9 -45 22 -79 27 -76 5 3 6 1 2 -6 -4 -7 -3 -33 3 -59 6 -26 14 -58
16 -72 3 -14 16 -83 30 -155 34 -179 61 -335 85 -500 29 -194 28 -192 36 -267
4 -37 10 -65 15 -62 5 3 9 0 9 -6 0 -6 3 -9 8 -7 4 3 8 -6 8 -19 1 -13 -2 -21
-7 -18 -5 3 -9 12 -9 20 0 8 -4 14 -9 14 -4 0 -5 -21 -1 -47 4 -27 11 -92 15
-145 5 -74 10 -95 20 -92 18 7 25 -8 18 -37 l-7 -24 -8 25 c-4 14 -6 -11 -3
-60 3 -47 5 -112 5 -144 0 -69 10 -71 13 -2 1 25 4 46 8 46 12 0 18 -13 12
-24 -10 -16 -11 -76 -1 -76 4 0 8 -5 8 -11 0 -6 -7 -9 -15 -5 -13 4 -15 -9
-15 -86 0 -50 3 -88 7 -85 3 4 6 29 6 57 -1 39 1 47 11 37 10 -9 10 -16 2 -29
-7 -12 -7 -26 2 -51 14 -39 15 -47 5 -46 -24 4 -28 -6 -25 -61 2 -33 8 -60 13
-60 5 0 9 -8 9 -17 0 -15 -2 -16 -10 -3 -7 10 -9 -98 -6 -320 5 -428 4 -403
14 -409 5 -3 3 -17 -4 -30 -10 -20 -12 -16 -11 38 0 33 -2 64 -6 68 -4 3 -7
-37 -7 -90 0 -82 2 -95 15 -91 8 4 15 1 15 -5 0 -6 -4 -11 -8 -11 -11 0 -10
-61 1 -77 5 -7 4 -13 -1 -13 -6 0 -9 -17 -8 -37 2 -21 0 -42 -3 -48 -8 -13 -8
-29 -1 -35 4 -3 0 -16 -8 -30 -12 -22 -13 -17 -7 50 10 113 11 145 4 171 -5
16 -7 3 -8 -36 -1 -33 -4 -98 -8 -144 -6 -75 -4 -84 10 -78 11 4 14 2 10 -9
-3 -8 -12 -13 -19 -10 -10 4 -14 -5 -14 -33 0 -21 -2 -58 -4 -82 -2 -24 -1
-33 1 -20 3 13 12 31 21 40 15 15 15 14 8 -4 -5 -11 -9 -30 -10 -43 -1 -12 -7
-26 -14 -31 -8 -5 -17 -36 -21 -70 -5 -42 -4 -58 3 -51 15 15 26 12 20 -5 -4
-8 -12 -15 -19 -15 -8 0 -16 -35 -25 -107 -17 -151 -84 -564 -114 -712 -28
-135 -31 -155 -17 -146 5 3 12 1 16 -5 3 -5 1 -10 -5 -10 -6 0 -8 -5 -4 -12 5
-7 2 -9 -9 -5 -18 7 -26 -10 -31 -66 -2 -19 -5 -38 -8 -43 -3 -5 -14 -45 -23
-89 -9 -44 -25 -111 -35 -150 -105 -401 -167 -611 -279 -933 -33 -95 -57 -180
-54 -189 4 -10 2 -14 -4 -10 -6 4 -14 -1 -18 -11 -4 -9 -26 -69 -50 -132 -23
-63 -50 -131 -58 -150 -9 -19 -39 -91 -68 -160 -29 -69 -78 -183 -111 -253
-32 -70 -58 -130 -58 -133 0 -3 7 1 15 10 8 8 15 19 15 25 0 6 5 11 11 11 6 0
9 -3 7 -7 -3 -5 -11 -23 -18 -40 -8 -18 -18 -33 -22 -33 -4 0 -5 -6 -2 -14 3
-8 0 -17 -6 -21 -18 -11 -20 -1 -5 28 8 15 10 27 6 27 -12 0 -161 -308 -159
-328 4 -28 -24 -102 -38 -102 -9 0 -6 14 11 46 26 49 31 64 16 49 -23 -25 -80
-144 -71 -150 6 -3 10 3 10 14 0 21 17 37 28 26 3 -3 1 -10 -7 -14 -7 -5 -12
-12 -12 -17 1 -5 -6 -17 -14 -27 -9 -10 -13 -22 -10 -27 3 -5 -3 -13 -12 -19
-10 -6 -15 -11 -11 -11 4 0 -1 -15 -12 -32 -11 -18 -23 -41 -26 -50 -4 -10
-10 -18 -15 -18 -5 0 -8 -3 -7 -7 2 -9 -41 -95 -51 -103 -4 -3 -12 -17 -18
-32 -12 -27 -33 -38 -33 -18 0 6 5 10 11 10 5 0 8 4 5 8 -3 5 4 19 15 30 11
12 16 22 12 22 -4 0 0 5 10 11 9 6 15 14 12 20 -4 5 -1 9 6 9 7 0 9 3 6 6 -4
4 2 19 12 33 10 14 22 36 25 49 4 13 12 19 18 16 7 -5 9 -1 5 9 -3 10 -2 17 4
17 6 0 8 4 4 9 -3 5 -1 12 4 16 15 8 41 65 30 65 -5 0 -22 -27 -39 -59 -16
-33 -63 -117 -103 -188 -102 -177 -101 -174 -83 -167 9 3 15 9 14 12 -4 15 29
64 36 53 4 -6 3 -11 -1 -11 -5 0 -15 -16 -22 -35 -7 -19 -18 -41 -24 -48 -7
-7 -23 -34 -37 -60 -13 -26 -31 -47 -39 -47 -10 0 -8 7 9 25 13 14 20 25 17
25 -8 0 22 51 38 63 6 5 5 7 -4 5 -8 -2 -34 -35 -58 -74 -58 -93 -77 -127 -65
-120 17 10 24 -11 9 -26 -8 -7 -20 -26 -28 -42 -8 -16 -21 -32 -29 -34 -12 -4
-11 -1 3 15 9 11 17 26 17 34 0 8 5 20 12 27 7 7 9 12 5 12 -7 0 -38 -47 -96
-142 -12 -21 -18 -38 -12 -38 6 0 11 8 11 17 0 13 3 14 12 5 9 -9 7 -17 -10
-35 -12 -13 -22 -28 -22 -34 0 -14 -29 -37 -37 -29 -4 3 2 13 13 21 10 8 15
15 10 15 -5 0 -2 8 5 17 10 12 10 15 1 9 -10 -6 -42 -51 -95 -133 -5 -9 -3
-11 8 -7 8 3 15 12 15 19 0 6 9 20 20 30 11 10 20 13 20 7 0 -7 -4 -12 -10
-12 -5 0 -10 -7 -10 -15 0 -8 -8 -23 -17 -33 -10 -10 -27 -34 -37 -53 -10 -19
-26 -43 -35 -54 -10 -11 -29 -38 -44 -61 -15 -22 -35 -49 -45 -60 -9 -10 -29
-38 -45 -62 -15 -23 -32 -42 -37 -42 -16 0 -11 18 8 29 9 6 14 11 10 11 -5 0
0 8 10 18 9 10 26 31 37 46 11 16 26 34 33 41 6 8 12 17 12 20 0 6 18 31 61
83 7 8 6 12 -5 12 -7 0 -16 -6 -19 -14 -5 -13 -147 -209 -232 -321 -146 -192
-437 -544 -554 -670 -113 -121 -176 -196 -173 -206 1 -6 -1 -8 -6 -5 -14 8
-274 -262 -266 -276 4 -7 3 -8 -5 -4 -15 9 -276 -243 -274 -264 2 -10 0 -11
-3 -2 -4 8 -28 -7 -70 -44 -36 -31 -62 -59 -59 -62 3 -3 15 3 27 14 l23 19
-19 -23 c-11 -12 -26 -20 -33 -18 -8 3 -35 -13 -61 -37 -25 -23 -58 -52 -72
-65 -14 -12 -46 -39 -72 -60 -26 -20 -47 -43 -48 -49 0 -7 -4 -12 -8 -10 -5 1
-72 -48 -148 -109 -76 -60 -170 -134 -209 -164 -82 -63 -91 -70 -84 -70 6 0
216 154 259 189 14 11 39 31 56 43 61 44 109 83 131 105 12 13 24 23 27 23 3
0 17 11 32 25 15 14 30 22 33 19 3 -4 0 -9 -7 -11 -7 -3 -22 -15 -33 -26 l-20
-22 26 -7 c27 -7 55 -26 55 -37 0 -4 -12 -14 -27 -23 -26 -14 -29 -14 -47 3
-26 25 -61 24 -85 -3 -19 -20 -19 -22 -3 -34 9 -7 20 -10 24 -8 4 3 16 0 25
-5 10 -6 14 -11 8 -11 -5 -1 -19 -4 -30 -6 -11 -3 -40 -6 -65 -7 -25 -1 -51
-6 -57 -10 -18 -11 -16 -37 2 -37 8 0 15 -4 15 -10 0 -5 -6 -10 -14 -10 -8 0
-24 -11 -34 -25 -19 -24 -42 -19 -27 5 3 5 -3 10 -14 10 -22 0 -74 -43 -64
-53 3 -4 -2 -16 -12 -27 -14 -16 -21 -18 -28 -8 -6 9 -7 8 -3 -4 3 -10 1 -20
-4 -23 -5 -3 -7 -12 -4 -19 9 -22 -16 -30 -34 -11 -10 10 -11 15 -4 11 7 -4
12 -1 12 8 0 21 -14 20 -31 0 -8 -9 -32 -28 -54 -42 -55 -34 -94 -72 -89 -86
4 -11 -60 -44 -76 -39 -3 1 -36 -20 -74 -45 -64 -45 -79 -66 -46 -67 10 0 16
-13 18 -42 2 -26 -1 -43 -7 -43 -6 0 -11 9 -11 20 0 11 -7 23 -15 26 -8 4 -13
10 -10 14 3 4 -2 13 -10 20 -10 9 -15 9 -15 1 0 -6 -7 -11 -15 -11 -23 0 -55
-37 -55 -64 0 -33 -15 -41 -41 -22 -19 13 -24 12 -54 -5 -38 -23 -73 -59 -57
-59 7 0 12 -5 12 -11 0 -5 -8 -9 -17 -8 -10 2 -28 -2 -39 -9 -12 -6 -24 -9
-27 -6 -3 3 -31 -11 -62 -31 -40 -25 -54 -40 -47 -47 7 -7 0 -19 -21 -38 -25
-22 -36 -26 -50 -18 -20 10 -87 -7 -87 -23 0 -5 -5 -9 -11 -9 -6 0 -44 -20
-85 -45 -40 -25 -76 -45 -80 -45 -3 0 -25 -14 -49 -30 -24 -16 -45 -30 -47
-30 -2 0 -80 -41 -173 -90 -94 -50 -195 -103 -225 -117 -30 -14 -109 -52 -175
-83 -206 -99 -269 -127 -295 -135 -14 -4 -41 -15 -60 -25 -135 -66 -260 -112
-274 -101 -8 6 -17 6 -26 -1 -12 -8 -12 -9 3 -4 9 3 17 2 17 -2 -1 -10 -105
-58 -178 -81 -34 -11 -71 -25 -83 -31 -17 -10 -20 -9 -16 2 2 7 10 12 16 11 6
-2 11 2 11 7 0 12 0 12 -39 -1 -17 -6 -31 -16 -31 -23 0 -13 -62 -47 -83 -45
-7 0 8 9 32 20 57 25 48 34 -13 13 -32 -11 -46 -21 -42 -30 3 -8 1 -14 -3 -14
-5 0 -11 5 -13 11 -3 9 -10 9 -27 0 -12 -7 -20 -15 -17 -18 3 -3 12 0 21 7 9
8 15 8 15 2 0 -6 -24 -19 -52 -30 -49 -18 -54 -19 -60 -3 -6 15 -7 15 -7 -1
-1 -9 -6 -20 -13 -24 -8 -5 -9 -2 -5 9 3 10 2 17 -3 17 -6 0 -10 -7 -10 -15 0
-18 -20 -20 -21 -2 0 9 -2 9 -6 -1 -3 -7 -22 -22 -44 -32 -33 -17 -39 -18 -39
-5 0 8 -5 15 -11 15 -6 0 -8 -7 -5 -15 6 -17 -29 -36 -51 -28 -6 3 -22 -1 -35
-8 -13 -7 -27 -14 -33 -14 -5 -1 -22 -6 -38 -13 -15 -6 -39 -14 -52 -16 -32
-6 -95 -26 -117 -37 -10 -5 -28 -9 -41 -9 -13 0 -27 -4 -33 -9 -8 -7 -273 -74
-329 -83 -11 -2 -22 -6 -25 -9 -3 -4 -21 -10 -40 -13 -37 -6 -65 -12 -102 -22
-13 -3 -52 -12 -88 -19 -36 -7 -72 -15 -80 -18 -8 -3 -31 -8 -51 -11 -20 -3
-42 -8 -50 -10 -17 -6 -87 -18 -111 -19 -10 -1 -18 -5 -18 -10 0 -4 -4 -6 -8
-3 -4 2 -62 -6 -127 -19 -109 -22 -145 -27 -269 -41 -21 -2 -41 -6 -45 -9 -4
-2 -32 -7 -62 -10 -30 -3 -65 -8 -79 -10 -14 -3 -46 -7 -73 -10 -26 -3 -68 -7
-95 -10 -26 -3 -69 -8 -97 -11 -27 -3 -66 -7 -85 -9 -19 -3 -62 -7 -95 -10
-56 -5 -97 -8 -280 -20 -186 -12 -388 -17 -690 -16 -312 1 -400 3 -625 17
-180 11 -205 13 -260 18 -30 4 -75 8 -100 10 -25 3 -76 7 -115 11 -130 12
-389 46 -540 71 -308 51 -755 138 -823 160 -14 4 -11 -3 18 -46 20 -30 62
-110 204 -400 85 -174 121 -235 188 -322 75 -97 108 -127 108 -97 0 6 8 9 18
7 9 -2 25 5 35 16 12 13 17 15 17 5 0 -12 2 -11 10 1 7 12 10 11 17 -5 6 -18
8 -16 13 10 4 17 3 37 -1 46 -9 18 -120 89 -140 89 -7 0 -10 2 -7 5 11 12 300
17 506 10 l212 -7 -1 -102 c0 -55 -6 -132 -13 -171 l-12 -70 -90 3 c-49 1
-143 11 -209 22 -66 10 -141 22 -166 25 -54 8 -61 12 -76 45 -12 28 -72 53
-94 39 -7 -4 -19 -3 -26 2 -7 6 -32 11 -57 11 -25 1 -43 4 -41 8 2 3 -11 5
-28 4 -34 -3 -85 9 -130 32 -15 7 -34 11 -41 8 -8 -3 -27 1 -43 9 -15 8 -55
20 -88 27 -33 7 -71 18 -85 25 -29 16 -98 30 -120 25 -50 -10 -200 20 -200 41
0 5 -8 9 -18 9 -24 0 -73 24 -137 67 -52 35 -74 40 -92 22 -5 -5 -24 -11 -41
-11 -33 -1 -205 51 -210 64 -2 4 -11 8 -19 8 -24 0 -339 159 -380 191 -20 16
-42 29 -49 29 -8 0 -21 11 -29 24 -9 13 -29 29 -45 36 -17 7 -30 16 -30 21 0
5 -10 11 -23 14 -16 4 -28 19 -38 48 l-14 42 -67 -2 c-58 -3 -69 0 -78 16 -5
11 -18 22 -28 25 -11 4 -25 18 -32 32 -8 13 -28 34 -46 45 -17 10 -40 31 -49
45 -16 25 -16 27 4 48 l21 23 -39 40 c-65 66 -190 163 -210 163 -5 0 1 -19 14
-42 24 -42 34 -108 16 -108 -5 0 -11 12 -14 28 -3 15 -25 48 -49 73 -24 25
-50 59 -59 76 -33 61 -139 88 -268 67 -31 -4 -54 -2 -75 8 -17 9 -49 20 -71
25 -77 20 -142 49 -181 80 l-38 31 14 73 15 74 82 41 81 42 -14 27 c-8 15 -14
35 -14 44 0 21 -19 41 -38 41 -7 0 -34 17 -60 38 -41 33 -53 38 -98 37 -28 -1
-56 -5 -62 -9 -6 -4 -44 4 -84 18 -40 13 -89 27 -109 31 -20 4 -48 18 -62 31
-14 13 -31 24 -36 24 -20 0 -30 36 -37 133 -5 69 -3 101 5 111 10 11 3 20 -34
45 -25 17 -48 31 -50 31 -2 0 -37 21 -76 48 -39 26 -106 69 -148 96 -42 27
-101 67 -131 90 -30 23 -73 52 -95 66 -22 13 -44 30 -48 37 -4 7 -14 13 -21
13 -7 0 -21 8 -32 18 -10 10 -50 41 -87 70 -38 29 -65 52 -61 52 12 0 100 -59
119 -80 10 -11 22 -20 28 -20 5 0 30 -15 56 -33 25 -18 60 -40 76 -50 l30 -18
-25 20 c-14 11 -99 75 -190 141 -91 67 -195 146 -232 176 -37 29 -74 51 -81
48 -8 -3 -20 3 -28 12 -13 16 -12 16 11 5 l25 -12 -25 21 c-14 12 -35 30 -47
40 -12 11 -31 17 -45 14 -18 -3 -19 -3 -5 4 16 7 13 12 -25 42 -24 19 -52 36
-63 36 -50 3 -51 4 -35 14 9 5 19 5 27 -2 7 -6 13 -8 13 -5 0 10 -242 212
-251 210 -5 -2 -8 1 -6 6 3 13 -175 171 -186 164 -6 -3 -7 -2 -4 4 3 5 -22 38
-57 71 -64 63 -83 75 -72 46 3 -9 2 -12 -5 -9 -6 4 -8 14 -5 22 7 17 -250 273
-274 273 -13 0 -13 1 0 10 13 8 13 10 -2 10 -9 0 -20 5 -24 12 -5 7 -2 8 7 3
8 -4 -15 22 -50 58 -36 37 -67 64 -70 61 -3 -3 1 -9 8 -13 9 -6 10 -11 2 -15
-12 -8 -24 14 -19 36 2 8 -30 51 -70 95 -60 65 -78 80 -95 75 -19 -5 -20 -3
-9 11 12 14 11 16 -7 12 -12 -2 -19 0 -16 6 4 5 0 9 -8 9 -19 0 -30 27 -15 36
7 5 8 2 3 -6 -5 -9 -4 -11 3 -6 7 4 12 3 12 -2 0 -6 7 -12 15 -16 22 -8 19 -4
-22 35 -20 18 -33 29 -29 22 3 -6 1 -15 -5 -19 -8 -5 -10 1 -7 19 4 20 -2 33
-25 54 -17 15 -27 22 -23 16 9 -16 -20 -17 -30 -1 -4 7 -3 8 4 4 21 -12 13 30
-8 49 -11 10 -20 13 -20 7 0 -7 4 -12 9 -12 5 0 11 -7 15 -15 8 -23 -30 0 -44
25 -14 27 -13 33 7 26 15 -6 15 -4 -2 14 -24 26 -54 29 -35 3 7 -10 -3 0 -23
22 -19 22 -32 45 -29 50 4 6 8 2 10 -8 2 -9 8 -14 14 -11 7 5 8 2 3 -6 -6 -9
-4 -11 5 -5 8 5 11 4 7 -2 -3 -5 1 -10 9 -10 10 0 6 9 -12 28 -14 15 -32 25
-38 23 -7 -3 -21 4 -31 16 -10 11 -15 20 -10 20 4 0 -4 9 -19 21 -27 21 -34
39 -15 39 5 0 7 -6 3 -12 -4 -7 -3 -10 1 -5 5 4 17 -1 28 -10 11 -10 -40 60
-114 156 -73 95 -135 168 -137 161 -5 -14 -72 57 -72 76 0 8 -5 14 -11 14 -5
0 -7 5 -4 10 5 8 12 7 23 -2 18 -14 -4 20 -81 125 -27 37 -53 67 -57 67 -5 0
2 -12 16 -27 13 -14 23 -27 22 -29 -11 -10 -22 -6 -24 10 -1 11 -10 24 -19 29
-11 6 -13 12 -6 21 15 18 -35 89 -58 81 -13 -4 -24 9 -48 54 -20 38 -28 62
-21 69 6 6 -3 21 -24 43 -18 18 -27 29 -19 24 10 -5 12 -4 7 4 -6 9 -11 9 -21
1 -9 -8 -14 -7 -18 4 -4 9 1 16 9 18 12 2 10 11 -13 43 -16 22 -32 48 -36 58
-3 9 -17 17 -29 18 -21 0 -21 1 -4 8 14 5 16 10 8 15 -7 4 -16 4 -22 1 -6 -3
-10 -2 -10 4 0 5 4 11 10 13 13 4 -38 88 -53 88 -8 0 -7 -3 2 -9 8 -5 10 -14
6 -21 -6 -9 -12 -6 -21 11 -18 32 -17 42 1 35 13 -4 14 -2 5 14 -6 11 -13 20
-16 20 -3 0 -3 -4 0 -8 3 -5 -1 -9 -8 -9 -7 0 -13 6 -13 14 0 7 4 13 8 13 15
0 -20 54 -36 56 -23 3 -32 14 -12 14 14 0 11 11 -17 61 -18 33 -37 60 -42 59
-5 -1 -8 -6 -7 -11 2 -5 -2 -9 -8 -9 -6 0 -9 7 -5 15 3 8 -2 18 -11 23 -11 6
-12 11 -4 16 6 4 11 2 11 -3 0 -6 4 -11 10 -11 5 0 1 13 -8 29 -12 22 -20 27
-29 19 -17 -14 -17 4 -1 21 11 10 10 12 -1 9 -7 -2 -16 3 -19 11 -2 8 0 11 6
7 6 -4 6 3 -1 18 -7 13 -15 22 -19 20 -4 -3 -5 1 -3 8 3 8 -1 22 -9 33 -14 19
-15 19 -10 -8 2 -15 0 -27 -6 -27 -6 0 -9 15 -7 35 2 19 1 32 -4 29 -4 -2 -13
4 -18 15 -16 29 -13 38 4 15 9 -10 -7 27 -35 84 -27 56 -52 102 -55 102 -2 0
-7 -5 -11 -12 -5 -7 -2 -8 7 -3 8 5 11 5 7 0 -4 -4 -3 -14 3 -22 9 -10 8 -13
-4 -13 -16 0 -30 26 -22 41 3 5 1 19 -5 31 -11 23 -11 23 6 3 20 -24 18 -20
-28 78 -29 60 -41 77 -58 77 -12 0 -18 4 -15 10 4 6 0 21 -8 34 -12 17 -13 26
-4 35 8 8 5 11 -11 11 -25 0 -40 26 -24 42 11 11 -14 88 -29 88 -5 0 -5 7 -2
17 5 12 3 14 -7 8 -8 -5 -11 -4 -7 3 10 15 -3 43 -16 35 -7 -4 -8 0 -3 12 5
15 4 16 -9 5 -17 -14 -21 0 -4 17 8 8 8 16 -1 30 -10 16 -11 16 -6 0 3 -9 1
-17 -4 -17 -14 0 -19 15 -10 29 9 16 -8 73 -20 66 -4 -3 -6 -15 -3 -28 4 -21
4 -21 -10 2 -8 14 -13 31 -10 38 3 7 0 13 -6 13 -6 0 -11 4 -11 10 0 5 7 7 15
4 11 -5 13 -2 9 10 -3 9 -15 16 -25 16 -10 0 -19 5 -19 11 0 5 4 8 9 4 5 -3
12 -1 15 4 3 5 -1 11 -9 15 -8 3 -15 11 -15 18 0 9 3 9 11 -2 9 -12 10 -11 4
5 -22 63 -28 75 -35 70 -4 -3 -6 5 -2 17 3 14 1 19 -6 14 -8 -5 -10 -2 -6 8 3
9 1 16 -6 16 -6 0 -9 4 -6 9 3 4 -2 27 -11 50 -12 31 -21 40 -32 36 -13 -5
-14 -4 -4 6 17 17 17 34 0 21 -10 -9 -16 -4 -24 18 -13 34 -7 39 13 13 12 -16
12 -16 7 5 -3 12 -9 22 -14 22 -5 0 -6 8 -2 17 5 15 3 14 -10 -2 -13 -16 -16
-17 -17 -5 0 9 6 22 13 29 10 11 9 13 -5 8 -10 -4 -18 -2 -18 2 0 5 6 11 12
13 10 4 10 10 0 29 -11 22 -12 22 -6 2 3 -13 1 -23 -5 -23 -5 0 -8 16 -6 35 2
23 -1 33 -8 28 -6 -3 -7 -1 -3 6 4 7 -2 20 -16 31 -13 11 -18 19 -11 20 6 0
14 -6 16 -12 3 -8 6 -6 6 5 1 9 -5 17 -13 17 -8 0 -18 4 -21 10 -3 6 1 7 9 4
13 -5 14 -1 5 25 -6 16 -19 33 -30 36 -21 7 -26 31 -7 37 10 4 10 10 0 29 -11
22 -12 22 -6 2 3 -13 1 -23 -4 -23 -13 0 -24 44 -12 48 6 2 10 8 10 14 0 6 -6
8 -14 5 -8 -3 -17 1 -20 9 -9 23 -7 34 4 34 5 0 7 -8 3 -18 -4 -12 -3 -14 6
-6 14 12 -25 138 -40 128 -6 -3 -7 5 -3 21 4 18 3 25 -6 23 -7 -2 -15 3 -18
11 -3 8 0 11 7 7 12 -8 14 4 5 28 -3 9 -11 16 -16 16 -6 0 -4 -7 3 -17 12 -14
12 -16 0 -12 -8 3 -18 15 -22 27 -6 16 -5 20 7 15 15 -6 17 0 7 35 -4 18 -8
21 -15 10 -6 -8 -7 -1 -4 22 3 19 3 29 0 22 -4 -8 -12 -1 -24 20 -10 18 -15
37 -12 42 2 5 11 -4 18 -20 17 -38 17 -20 0 36 -8 29 -15 39 -20 30 -3 -8 -4
-5 -2 8 4 20 -22 130 -40 172 -4 8 -6 23 -5 34 2 11 -2 16 -8 11 -6 -3 -9 -10
-6 -15 3 -5 1 -11 -4 -15 -6 -3 -8 3 -6 15 2 11 0 20 -6 20 -12 0 -12 27 1 35
6 3 7 -1 4 -9 -3 -9 -1 -16 5 -16 14 0 14 1 0 55 -6 25 -15 42 -21 39 -5 -3
-6 6 -2 22 5 19 4 25 -5 20 -9 -6 -10 0 -6 21 5 19 4 24 -3 14 -8 -11 -11 -11
-18 0 -4 7 -3 14 4 17 7 2 12 13 12 24 0 17 -3 18 -15 8 -18 -15 -19 -7 -2 21
9 16 9 23 1 26 -7 2 -9 14 -6 25 4 17 2 20 -12 15 -14 -5 -15 -3 -6 12 14 26
1 84 -16 77 -8 -3 -14 -1 -14 4 0 6 5 10 10 10 6 0 10 9 10 20 0 14 -5 18 -17
13 -15 -5 -16 -3 -5 8 6 7 12 22 12 34 0 16 -2 17 -10 5 -5 -8 -10 -13 -11
-10 -5 28 -4 48 3 44 4 -3 8 2 8 11 0 8 -10 20 -22 25 -19 7 -20 9 -4 9 14 1
17 6 13 24 -3 12 -9 40 -13 62 -3 22 -13 48 -22 57 -18 21 -27 82 -10 72 8 -5
9 2 5 26 -4 18 -7 42 -7 54 0 17 -2 18 -10 6 -6 -10 -8 -2 -4 25 4 31 3 37 -6
25 -9 -12 -10 -9 -5 16 3 16 -1 68 -10 115 -16 86 -19 111 -24 189 -1 25 -5
39 -8 33 -2 -7 -9 -13 -14 -13 -4 0 -6 7 -3 15 4 8 1 15 -5 15 -6 0 -11 5 -11
11 0 8 5 7 16 -2 15 -12 15 -7 9 56 -4 39 -10 74 -13 80 -3 5 -5 30 -4 55 2
43 2 44 -14 25 l-17 -20 9 20 c10 22 9 194 -1 204 -3 3 -10 -1 -15 -9 -6 -9
-10 -10 -10 -3 0 7 8 17 18 22 9 6 13 11 7 11 -9 0 -12 36 -13 208 -1 42 -5
72 -11 72 -6 0 -8 7 -5 15 4 8 0 23 -7 32 -10 12 -10 15 -1 9 8 -5 12 0 12 18
0 16 -7 27 -20 31 -21 7 -28 25 -10 25 6 0 10 -4 10 -10 0 -5 5 -10 10 -10 6
0 10 14 10 30 0 17 -5 30 -11 30 -8 0 -8 5 1 15 10 12 10 15 0 15 -8 0 -11 9
-8 25 4 17 1 25 -8 25 -8 0 -14 8 -13 18 0 10 3 12 6 5 19 -48 24 24 25 385 1
218 2 449 2 513 1 84 -3 120 -13 132 -7 10 -9 17 -4 17 6 0 15 -10 21 -22 9
-19 11 -8 9 59 -1 44 1 79 4 77 3 -2 9 38 12 89 4 51 11 137 17 192 6 54 9
109 5 122 -3 14 -1 23 6 23 7 0 10 13 7 35 -2 19 0 36 4 37 5 2 9 38 11 80 1
42 6 74 11 71 4 -3 7 13 4 36 -2 22 0 41 5 41 5 0 7 14 5 30 -3 17 -1 33 4 36
14 9 10 56 -5 48 -6 -4 -5 1 4 12 23 27 34 111 17 132 -12 15 -11 16 4 3 16
-12 18 -10 20 20 3 60 5 74 13 93 5 10 9 40 9 66 1 26 5 45 10 42 5 -3 7 5 4
16 -4 12 -2 25 3 28 15 9 10 32 -8 37 -14 4 -12 5 5 6 12 0 22 7 22 15 0 7 3
28 7 46 5 27 3 32 -8 26 -9 -5 -8 -3 2 6 16 14 52 161 52 215 0 18 4 30 9 27
13 -8 9 31 -5 46 -10 12 -9 12 4 2 13 -10 17 -5 27 39 7 28 9 56 5 61 -3 6 -1
8 4 5 10 -6 27 58 28 103 0 8 5 18 10 22 7 5 6 14 -2 27 -10 17 -10 19 1 15 8
-3 16 4 20 18 9 35 7 50 -6 42 -7 -4 -8 -3 -4 5 4 6 11 9 16 6 11 -7 24 51 14
66 -4 8 -3 9 4 5 7 -4 12 -1 12 8 0 8 3 21 6 29 3 10 -2 17 -13 20 -14 4 -12
5 6 6 19 1 23 5 19 26 -3 13 -2 22 2 20 10 -6 22 54 13 68 -3 5 -2 7 4 4 12
-8 117 319 107 335 -4 7 -3 8 4 4 11 -7 16 7 15 42 -1 6 3 12 7 12 13 0 32 68
24 81 -4 7 -3 9 3 6 8 -5 47 90 48 118 0 6 3 12 7 15 4 3 9 17 10 30 2 14 6
27 10 30 14 11 109 264 104 277 -3 8 -2 12 2 9 5 -3 26 36 47 87 22 51 67 154
102 231 34 76 60 143 56 149 -3 6 -1 7 5 3 11 -7 16 7 15 41 -1 7 2 11 6 8 11
-6 62 105 55 117 -4 6 -3 8 3 5 11 -7 79 130 69 140 -3 4 -13 -2 -21 -13 -15
-20 -21 -8 -6 15 5 8 16 11 25 8 12 -5 24 9 47 54 17 34 26 58 20 55 -5 -4
-13 -2 -16 4 -4 6 -3 10 2 9 23 -4 34 8 73 84 24 45 54 99 67 120 13 21 21 42
18 46 -2 5 2 12 11 15 9 3 14 12 12 18 -3 7 4 19 14 28 10 8 20 25 21 37 0 12
5 19 9 17 7 -5 9 0 12 33 1 7 8 18 17 25 20 16 82 119 82 135 0 7 5 9 10 6 6
-4 8 1 4 11 -4 10 -3 15 3 11 10 -6 15 9 10 30 -1 6 2 7 6 2 4 -4 19 12 32 35
49 83 261 404 352 532 27 38 46 74 43 80 -3 6 -3 8 1 4 5 -4 44 41 87 100 44
59 88 116 99 128 10 11 20 26 22 33 2 7 15 26 30 43 15 16 71 84 125 151 53
67 127 156 163 198 36 41 90 104 120 140 270 315 707 747 1060 1050 74 63 173
146 220 184 47 38 99 80 116 94 58 48 70 58 245 188 187 139 289 211 467 330
65 43 109 79 106 85 -4 7 -2 8 4 4 7 -4 68 28 139 72 71 43 173 106 228 139
91 54 146 85 370 210 93 51 465 238 585 292 878 401 1765 675 2693 832 200 33
434 67 517 74 30 3 69 7 85 10 17 2 64 7 105 10 41 4 86 8 100 11 14 2 70 7
125 10 55 4 111 8 125 9 14 1 54 3 90 4 64 2 64 2 35 16 -38 17 -25 19 18 3z
m240 5 c-7 -2 -19 -2 -25 0 -7 3 -2 5 12 5 14 0 19 -2 13 -5z m-413 -19 c0 -2
-9 -4 -21 -4 -11 0 -18 4 -14 10 5 8 35 3 35 -6z m-610 -54 c0 -5 -2 -10 -4
-10 -3 0 -8 5 -11 10 -3 6 -1 10 4 10 6 0 11 -4 11 -10z m4507 -396 c-3 -3
-12 -4 -19 -1 -8 3 -5 6 6 6 11 1 17 -2 13 -5z m303 -94 c0 -5 -5 -10 -11 -10
-5 0 -7 5 -4 10 3 6 8 10 11 10 2 0 4 -4 4 -10z m-7960 -414 c0 -3 -4 -8 -10
-11 -5 -3 -10 -1 -10 4 0 6 5 11 10 11 6 0 10 -2 10 -4z m9089 -42 c14 -12
-19 -1 -35 12 -18 14 -18 14 6 3 14 -6 27 -13 29 -15z m-9309 -69 c-33 -19
-50 -18 -26 0 11 8 27 15 35 15 10 -1 7 -6 -9 -15z m9521 -31 c17 -8 29 -18
26 -20 -6 -6 -67 23 -67 31 0 8 10 6 41 -11z m59 -34 c0 -5 -2 -10 -4 -10 -3
0 -8 5 -11 10 -3 6 -1 10 4 10 6 0 11 -4 11 -10z m761 -437 c13 -16 12 -17 -3
-4 -10 7 -18 15 -18 17 0 8 8 3 21 -13z m270 -170 c13 -16 12 -17 -3 -4 -10 7
-18 15 -18 17 0 8 8 3 21 -13z m54 -33 c3 -5 1 -10 -4 -10 -6 0 -11 5 -11 10
0 6 2 10 4 10 3 0 8 -4 11 -10z m365 -260 c0 -5 -2 -10 -4 -10 -3 0 -8 5 -11
10 -3 6 -1 10 4 10 6 0 11 -4 11 -10z m610 -490 c0 -5 -2 -10 -4 -10 -3 0 -8
5 -11 10 -3 6 -1 10 4 10 6 0 11 -4 11 -10z m70 -52 c0 -6 -6 -5 -15 2 -8 7
-15 14 -15 16 0 2 7 1 15 -2 8 -4 15 -11 15 -16z m45 -38 c3 -5 1 -10 -4 -10
-6 0 -11 5 -11 10 0 6 2 10 4 10 3 0 8 -4 11 -10z m-14145 -70 c0 -5 -5 -10
-11 -10 -5 0 -7 5 -4 10 3 6 8 10 11 10 2 0 4 -4 4 -10z m14335 -100 c3 -5 1
-10 -4 -10 -6 0 -11 5 -11 10 0 6 2 10 4 10 3 0 8 -4 11 -10z m98 -95 c4 -8 1
-17 -5 -21 -7 -4 -8 -3 -4 4 4 7 2 12 -3 12 -6 0 -11 5 -11 10 0 15 17 12 23
-5z m62 -55 c3 -6 -4 -10 -17 -10 -18 0 -20 2 -8 10 19 12 18 12 25 0z
m-14855 -85 c-24 -25 -46 -45 -49 -45 -7 0 30 42 59 67 42 38 37 26 -10 -22z
m14915 25 c3 -5 2 -10 -4 -10 -5 0 -13 5 -16 10 -3 6 -2 10 4 10 5 0 13 -4 16
-10z m155 -155 c20 -24 6 -28 -15 -5 -10 11 -13 20 -8 20 6 0 16 -7 23 -15z
m170 -175 c0 -5 -2 -10 -4 -10 -3 0 -8 5 -11 10 -3 6 -1 10 4 10 6 0 11 -4 11
-10z m45 -50 c3 -5 1 -10 -4 -10 -6 0 -11 5 -11 10 0 6 2 10 4 10 3 0 8 -4 11
-10z m53 -67 c-2 -11 2 -17 10 -15 8 1 11 -2 7 -9 -5 -8 -10 -8 -18 0 -14 14
-18 41 -6 41 6 0 9 -8 7 -17z m47 -43 c3 -5 1 -10 -4 -10 -6 0 -11 5 -11 10 0
6 2 10 4 10 3 0 8 -4 11 -10z m129 -146 c3 -8 2 -12 -4 -9 -6 3 -10 10 -10 16
0 14 7 11 14 -7z m203 -250 c2 -13 1 -15 -4 -4 -3 8 -11 19 -17 23 -7 6 -6 7
4 4 8 -2 16 -12 17 -23z m62 -78 c-3 -3 -11 5 -18 17 -13 21 -12 21 5 5 10
-10 16 -20 13 -22z m112 -133 c13 -16 12 -17 -3 -4 -17 13 -22 21 -14 21 2 0
10 -8 17 -17z m53 -76 c7 -6 6 -7 -4 -4 -8 2 -16 12 -17 23 -2 13 -1 15 4 4 3
-8 11 -19 17 -23z m66 -82 c14 -19 14 -19 -2 -6 -10 7 -18 18 -18 24 0 6 1 8
3 6 1 -2 9 -13 17 -24z m61 -82 c13 -17 13 -17 -6 -3 -11 8 -22 16 -24 17 -2
2 0 3 6 3 6 0 17 -8 24 -17z m27 -48 c-3 -3 -9 2 -12 12 -6 14 -5 15 5 6 7 -7
10 -15 7 -18z m42 -45 c0 -5 -2 -10 -4 -10 -3 0 -8 5 -11 10 -3 6 -1 10 4 10
6 0 11 -4 11 -10z m70 -102 c10 -21 10 -21 -3 -6 -8 10 -18 14 -22 10 -5 -4
-5 -1 -1 6 10 17 14 15 26 -10z m60 -90 c10 -21 10 -21 -3 -6 -8 10 -18 14
-22 10 -5 -4 -5 -1 -1 6 10 17 14 15 26 -10z m65 -89 c11 -16 1 -19 -13 -3 -7
8 -8 14 -3 14 5 0 13 -5 16 -11z m53 -114 c-3 -3 -9 2 -12 12 -6 14 -5 15 5 6
7 -7 10 -15 7 -18z m26 -11 c3 -8 2 -12 -4 -9 -6 3 -10 10 -10 16 0 14 7 11
14 -7z m-17890 -12 c3 -5 -1 -9 -9 -9 -8 0 -12 4 -9 9 3 4 7 8 9 8 2 0 6 -4 9
-8z m17996 -154 c0 -5 -7 -3 -15 6 -8 8 -15 18 -15 22 0 3 7 1 15 -6 8 -7 15
-17 15 -22z m167 -300 c-3 -8 -6 -5 -6 6 -1 11 2 17 5 13 3 -3 4 -12 1 -19z
m-18497 -92 c0 -3 -4 -8 -10 -11 -5 -3 -10 -1 -10 4 0 6 5 11 10 11 6 0 10 -2
10 -4z m-90 -187 c0 -5 -4 -8 -9 -5 -5 4 -12 0 -14 -6 -3 -8 -6 -6 -6 5 -1 9
6 17 14 17 8 0 15 -5 15 -11z m18765 -19 c3 -5 1 -10 -4 -10 -6 0 -11 5 -11
10 0 6 2 10 4 10 3 0 8 -4 11 -10z m15 -30 c0 -5 -2 -10 -4 -10 -3 0 -8 5 -11
10 -3 6 -1 10 4 10 6 0 11 -4 11 -10z m15 -38 c-3 -3 -11 0 -18 7 -9 10 -8 11
6 5 10 -3 15 -9 12 -12z m-18983 -244 c-7 -7 -12 -8 -12 -2 0 14 12 26 19 19
2 -3 -1 -11 -7 -17z m19212 -218 c-6 -5 -24 21 -24 34 0 6 6 1 14 -10 8 -10
12 -21 10 -24z m-19322 -12 c-7 -7 -12 -8 -12 -2 0 14 12 26 19 19 2 -3 -1
-11 -7 -17z m19471 -312 c4 -10 1 -13 -8 -9 -8 3 -12 9 -9 14 7 12 11 11 17
-5z m51 -122 c3 -8 2 -12 -4 -9 -6 3 -10 10 -10 16 0 14 7 11 14 -7z m46 -114
c0 -5 -2 -10 -4 -10 -3 0 -8 5 -11 10 -3 6 -1 10 4 10 6 0 11 -4 11 -10z m17
-62 c-3 -8 -6 -5 -6 6 -1 11 2 17 5 13 3 -3 4 -12 1 -19z m17 -26 c2 -4 1 -14
-3 -21 -6 -9 -10 -7 -14 8 -5 20 7 29 17 13z m81 -212 c3 -6 -1 -7 -9 -4 -18
7 -21 14 -7 14 6 0 13 -4 16 -10z m61 -175 c9 -39 0 -30 -15 15 -6 19 -7 30
-2 25 5 -6 13 -23 17 -40z m68 -235 c-5 -5 -9 4 -10 23 -1 30 -1 30 9 9 6 -14
7 -26 1 -32z m46 -120 c0 -5 -2 -10 -4 -10 -3 0 -8 5 -11 10 -3 6 -1 10 4 10
6 0 11 -4 11 -10z m-20405 -80 c3 -5 1 -10 -4 -10 -6 0 -11 5 -11 10 0 6 2 10
4 10 3 0 8 -4 11 -10z m20426 -33 c-10 -9 -11 -8 -5 6 3 10 9 15 12 12 3 -3 0
-11 -7 -18z m25 -63 c-4 -9 -9 -15 -11 -12 -3 3 -3 13 1 22 4 9 9 15 11 12 3
-3 3 -13 -1 -22z m15 -67 c-10 -9 -11 -8 -5 6 3 10 9 15 12 12 3 -3 0 -11 -7
-18z m29 -77 c0 -5 -5 -10 -11 -10 -5 0 -7 5 -4 10 3 6 8 10 11 10 2 0 4 -4 4
-10z m25 -80 c3 -5 1 -10 -4 -10 -6 0 -11 5 -11 10 0 6 2 10 4 10 3 0 8 -4 11
-10z m-20622 -35 c-3 -9 -8 -14 -10 -11 -3 3 -2 9 2 15 9 16 15 13 8 -4z
m20633 -22 c-2 -10 2 -22 8 -26 7 -6 6 -7 -4 -4 -14 3 -21 23 -13 40 7 13 11
8 9 -10z m51 -209 c2 -13 1 -15 -4 -4 -3 8 -11 19 -17 23 -7 6 -6 7 4 4 8 -2
16 -12 17 -23z m13 -45 c0 -5 -4 -9 -10 -9 -5 0 -10 7 -10 16 0 8 5 12 10 9 6
-3 10 -10 10 -16z m-20780 -130 c0 -5 -4 -9 -8 -9 -5 0 -9 7 -9 15 0 8 4 12 9
9 4 -3 8 -9 8 -15z m20807 -21 c2 -17 0 -19 -7 -8 -5 8 -6 18 -4 22 8 12 10
10 11 -14z m25 -140 c-7 -7 -12 -8 -12 -2 0 14 12 26 19 19 2 -3 -1 -11 -7
-17z m18 -38 c0 -5 -5 -10 -11 -10 -5 0 -7 5 -4 10 3 6 8 10 11 10 2 0 4 -4 4
-10z m3 -65 c-7 -21 -13 -19 -13 6 0 11 4 18 10 14 5 -3 7 -12 3 -20z m27 -95
c0 -5 -4 -10 -10 -10 -5 0 -10 5 -10 10 0 6 5 10 10 10 6 0 10 -4 10 -10z m16
-113 c1 -24 -1 -34 -6 -26 -5 7 -7 17 -4 21 3 4 0 16 -5 26 -7 13 -7 19 2 19
7 0 13 -17 13 -40z m9 -67 c-4 -12 -2 -20 5 -20 6 0 8 -5 4 -11 -9 -16 -28 17
-20 37 8 22 18 17 11 -6z m-21015 -50 c0 -5 -2 -10 -4 -10 -3 0 -8 5 -11 10
-3 6 -1 10 4 10 6 0 11 -4 11 -10z m21040 -70 c0 -5 -4 -10 -10 -10 -5 0 -10
5 -10 10 0 6 5 10 10 10 6 0 10 -4 10 -10z m4 -71 c-3 -6 0 -15 7 -20 9 -6 10
-9 2 -9 -15 0 -26 17 -18 30 3 6 8 10 11 10 3 0 2 -5 -2 -11z m7 -80 c-5 -13
-10 -19 -10 -12 -1 15 10 45 15 40 3 -2 0 -15 -5 -28z m13 -60 c-3 -5 -1 -15
5 -22 6 -8 6 -18 1 -27 -11 -17 -11 -17 -14 32 -2 21 1 35 6 32 4 -3 6 -10 2
-15z m13 -84 c-4 -8 -2 -17 3 -20 6 -4 10 -12 9 -18 0 -9 -2 -8 -6 1 -2 6 -9
10 -14 7 -5 -4 -8 5 -7 19 1 15 6 26 11 26 5 0 7 -7 4 -15z m-21140 -71 c-3
-3 -12 -4 -19 -1 -8 3 -5 6 6 6 11 1 17 -2 13 -5z m21145 -16 c-7 -7 -12 -8
-12 -2 0 14 12 26 19 19 2 -3 -1 -11 -7 -17z m21 -121 c-7 -11 -23 2 -23 19 0
12 2 12 14 2 8 -7 12 -16 9 -21z m3 -70 c-2 -15 1 -27 6 -27 5 0 8 -5 6 -11
-9 -26 -23 0 -25 46 -2 34 0 45 6 35 6 -9 8 -28 7 -43z m-21192 7 c3 -8 2 -12
-4 -9 -6 3 -10 10 -10 16 0 14 7 11 14 -7z m21209 -95 c4 -3 1 -12 -8 -19 -13
-11 -15 -9 -15 15 0 16 3 24 8 19 4 -5 11 -11 15 -15z m-21233 -119 c0 -5 -5
-10 -11 -10 -5 0 -7 5 -4 10 3 6 8 10 11 10 2 0 4 -4 4 -10z m21234 -20 c-4
-19 -2 -30 5 -30 6 0 11 -5 11 -11 0 -8 -5 -8 -15 1 -15 13 -20 51 -8 63 11
12 13 8 7 -23z m-21240 -56 c3 -8 2 -12 -4 -9 -6 3 -10 10 -10 16 0 14 7 11
14 -7z m-7 -276 c-3 -7 -5 -2 -5 12 0 14 2 19 5 13 2 -7 2 -19 0 -25z m-7
-109 c0 -5 -4 -9 -10 -9 -5 0 -10 7 -10 16 0 8 5 12 10 9 6 -3 10 -10 10 -16z
m0 -133 c0 -11 -19 -15 -25 -6 -3 5 1 10 9 10 9 0 16 -2 16 -4z m21294 -38 c8
-5 8 -13 -1 -26 -14 -23 -17 -322 -2 -322 5 0 9 -9 9 -20 0 -11 -4 -20 -9 -20
-6 0 -11 -17 -13 -37 -2 -21 -4 75 -5 212 0 138 2 243 5 235 3 -8 10 -18 16
-22z m-21297 -50 c-2 -13 -4 -5 -4 17 -1 22 1 32 4 23 2 -10 2 -28 0 -40z m0
-225 c-2 -32 -3 -8 -3 52 0 61 1 87 3 58 2 -29 2 -78 0 -110z m-3 -138 c-4 -8
-11 -12 -16 -9 -6 4 -5 10 3 15 19 12 19 11 13 -6z m21283 -137 c-2 -13 -4 -5
-4 17 -1 22 1 32 4 23 2 -10 2 -28 0 -40z m-3 -203 c-4 -8 -8 -15 -10 -15 -2
0 -4 7 -4 15 0 8 4 15 10 15 5 0 7 -7 4 -15z m-21258 -109 c0 -14 -6 -22 -13
-19 -9 4 -9 9 0 24 15 24 15 24 13 -5z m-1 -76 c3 -5 1 -10 -4 -10 -6 0 -11 5
-11 10 0 6 2 10 4 10 3 0 8 -4 11 -10z m21235 -187 c0 -5 -5 -15 -10 -23 -7
-12 -9 -10 -7 8 1 19 17 33 17 15z m-21218 -65 c-7 -7 -12 -8 -12 -2 0 14 12
26 19 19 2 -3 -1 -11 -7 -17z m10 -50 c-7 -7 -12 -8 -12 -2 0 14 12 26 19 19
2 -3 -1 -11 -7 -17z m8 -48 c0 -5 -4 -10 -10 -10 -5 0 -10 5 -10 10 0 6 5 10
10 10 6 0 10 -4 10 -10z m21190 -10 c0 -5 -5 -10 -11 -10 -6 0 -8 -9 -4 -22 6
-18 5 -20 -5 -12 -7 7 -9 21 -5 33 6 21 25 29 25 11z m-21170 -130 c0 -5 -4
-10 -10 -10 -5 0 -10 5 -10 10 0 6 5 10 10 10 6 0 10 -4 10 -10z m21150 1 c0
-6 -4 -13 -10 -16 -5 -3 -10 1 -10 9 0 9 5 16 10 16 6 0 10 -4 10 -9z m0 -41
c0 -5 -4 -10 -9 -10 -5 0 -7 -8 -4 -19 3 -10 0 -22 -6 -25 -8 -6 -9 10 -2 57
2 11 21 9 21 -3z m-17 -91 c-6 -6 -9 -17 -7 -24 3 -7 1 -16 -5 -19 -12 -8 -11
34 2 52 6 7 12 10 15 7 3 -3 1 -10 -5 -16z m-3 -69 c0 -5 -5 -10 -11 -10 -6 0
-8 -9 -4 -20 4 -11 2 -20 -4 -20 -12 0 -14 20 -5 44 7 18 24 22 24 6z m-21100
-24 c0 -3 -4 -8 -10 -11 -5 -3 -10 -1 -10 4 0 6 5 11 10 11 6 0 10 -2 10 -4z
m21080 -67 c-5 -18 -7 -35 -5 -40 3 -4 1 -10 -4 -13 -4 -3 -7 -19 -5 -36 2
-16 -1 -30 -6 -30 -5 0 -7 -7 -4 -15 4 -8 1 -15 -6 -15 -8 0 -10 9 -5 28 4 15
9 38 10 52 3 27 15 81 22 93 10 17 11 5 3 -24z m-21063 -105 c2 -13 1 -15 -4
-4 -3 8 -11 19 -17 23 -7 6 -6 7 4 4 8 -2 16 -12 17 -23z m7 -50 c3 -8 2 -12
-4 -9 -6 3 -10 10 -10 16 0 14 7 11 14 -7z m21026 -40 c-5 -13 -9 -28 -9 -32
1 -4 1 -9 -1 -12 -1 -5 -10 -71 -13 -102 -1 -9 -5 -14 -9 -12 -10 7 -10 54 0
54 4 0 8 23 10 52 1 28 6 56 12 63 5 6 6 16 2 20 -4 5 -2 5 5 1 9 -5 9 -14 3
-32z m-20990 -124 c0 -5 -4 -10 -10 -10 -5 0 -10 5 -10 10 0 6 5 10 10 10 6 0
10 -4 10 -10z m20960 -61 c0 -5 -4 -9 -8 -9 -5 0 -9 7 -9 15 0 8 4 12 9 9 4
-3 8 -9 8 -15z m-5 -27 c-6 -4 -10 -17 -9 -30 1 -12 -2 -25 -7 -27 -4 -3 -6
-14 -4 -25 2 -12 0 -18 -6 -14 -6 3 -8 17 -4 33 4 14 8 35 10 46 3 26 3 25 18
25 8 0 8 -3 2 -8z m-20935 -52 c0 -5 -5 -10 -11 -10 -5 0 -7 5 -4 10 3 6 8 10
11 10 2 0 4 -4 4 -10z m10 -50 c0 -5 -5 -10 -11 -10 -5 0 -7 5 -4 10 3 6 8 10
11 10 2 0 4 -4 4 -10z m20895 -19 c3 -5 2 -12 -3 -15 -5 -3 -9 1 -9 9 0 17 3
19 12 6z m-20885 -5 c0 -3 -4 -8 -10 -11 -5 -3 -10 -1 -10 4 0 6 5 11 10 11 6
0 10 -2 10 -4z m20883 -32 c-7 -3 -9 -13 -6 -22 5 -13 3 -14 -7 -5 -14 13 -5
33 13 32 9 0 9 -2 0 -5z m-10 -61 c-3 -7 -8 -13 -12 -13 -4 0 -8 6 -8 13 0 8
6 14 13 14 7 0 10 -6 7 -14z m-20 -93 c-3 -11 -9 -20 -14 -20 -11 0 -11 3 -3
24 9 23 23 20 17 -4z m-11 -37 c-6 -2 -10 -9 -6 -14 3 -5 0 -9 -5 -9 -6 0 -11
7 -11 15 0 8 8 15 18 14 10 0 12 -3 4 -6z m-6 -49 c-3 -9 -6 -18 -6 -20 0 -3
-4 -3 -10 1 -11 7 -2 35 12 35 6 0 7 -7 4 -16z m-22 -71 c-2 -20 -8 -41 -14
-47 -9 -8 -10 0 -4 29 11 65 24 77 18 18z m-14 -73 c0 -5 -2 -10 -4 -10 -3 0
-8 5 -11 10 -3 6 -1 10 4 10 6 0 11 -4 11 -10z m-5 -28 c-6 -4 -11 -15 -12
-24 -1 -34 -3 -38 -14 -38 -7 0 -8 7 -4 18 4 9 8 24 10 32 2 8 4 16 4 18 1 1
7 2 14 2 8 0 8 -3 2 -8z m-20675 -86 c0 -3 -4 -8 -10 -11 -5 -3 -10 -1 -10 4
0 6 5 11 10 11 6 0 10 -2 10 -4z m20644 -33 c-3 -21 -10 -43 -15 -49 -5 -6 -6
-14 -2 -17 3 -4 1 -12 -5 -19 -6 -7 -11 -16 -11 -20 -7 -42 -15 -68 -23 -68
-6 0 -7 8 -3 18 3 9 9 29 12 45 3 15 10 30 14 33 5 3 7 10 3 15 -3 5 0 16 6
24 6 8 9 19 5 25 -3 5 -2 10 3 10 6 0 8 9 5 20 -3 11 0 20 6 20 7 0 9 -13 5
-37z m-54 -205 c0 -24 -16 -56 -23 -48 -3 3 -2 20 0 38 6 36 23 44 23 10z
m-20533 -10 c-3 -8 -6 -5 -6 6 -1 11 2 17 5 13 3 -3 4 -12 1 -19z m20513 -58
c0 -5 -4 -10 -10 -10 -5 0 -10 5 -10 10 0 6 5 10 10 10 6 0 10 -4 10 -10z
m-20 -75 c-11 -32 -30 -48 -30 -25 0 6 5 10 10 10 6 0 9 3 8 8 -3 14 15 67 19
55 3 -7 -1 -29 -7 -48z m-30 -85 c-7 -4 -9 -13 -6 -19 4 -6 2 -11 -3 -11 -14
0 -14 10 2 43 9 20 13 22 15 11 2 -9 -2 -20 -8 -24z m-20 -69 c0 -19 -12 -41
-23 -41 -8 0 -8 3 0 11 6 6 9 18 6 25 -3 8 0 14 6 14 6 0 11 -4 11 -9z m-37
-133 c-23 -74 -51 -134 -59 -125 -6 6 8 47 17 47 5 0 6 7 3 15 -4 8 -1 15 6
15 6 0 9 4 5 9 -3 5 -1 12 5 16 6 4 8 11 5 16 -4 5 -1 9 5 9 7 0 10 6 7 14 -3
7 0 19 6 25 6 6 7 11 3 11 -5 0 -3 7 4 15 7 8 14 15 15 15 2 0 -8 -37 -22 -82z
m-20270 -17 c3 -14 1 -18 -9 -14 -15 6 -18 16 -7 26 9 10 10 9 16 -12z m20208
-174 c-6 -15 -15 -27 -21 -27 -6 0 -6 8 -1 23 5 12 13 31 17 42 6 16 8 17 11
4 2 -8 -1 -28 -6 -42z m-11 -41 c0 -3 -4 -8 -10 -11 -5 -3 -10 -1 -10 4 0 6 5
11 10 11 6 0 10 -2 10 -4z m-28 -48 c-7 -7 -12 -8 -12 -2 0 14 12 26 19 19 2
-3 -1 -11 -7 -17z m-2 -27 c0 -5 -9 -19 -21 -32 -11 -13 -18 -17 -15 -9 3 8 9
23 12 33 7 18 24 24 24 8z m-25 -71 c-3 -5 -10 -10 -16 -10 -5 0 -9 5 -9 10 0
6 7 10 16 10 8 0 12 -4 9 -10z m-39 -102 c-8 -18 -19 -34 -25 -36 -15 -5 -14
14 2 30 8 7 12 19 9 26 -2 6 3 12 12 12 13 0 13 -4 2 -32z m-30 -80 c-8 -18
-19 -34 -25 -36 -14 -5 -15 15 -1 23 6 3 10 15 10 26 0 10 7 19 15 19 12 0 12
-5 1 -32z m-19866 -32 c0 -3 -4 -8 -10 -11 -5 -3 -10 -1 -10 4 0 6 5 11 10 11
6 0 10 -2 10 -4z m19840 -32 c0 -8 -4 -12 -10 -9 -5 3 -10 10 -10 16 0 5 5 9
10 9 6 0 10 -7 10 -16z m-19827 -31 c-5 -12 -7 -12 -14 -1 -5 7 -9 19 -9 27 0
11 3 11 14 1 8 -6 12 -18 9 -27z m19798 -26 c-13 -13 -15 1 -4 30 7 17 8 17
11 -1 2 -10 -1 -23 -7 -29z m-12 -49 c-8 -14 -14 -18 -17 -10 -4 13 17 46 25
38 3 -2 -1 -15 -8 -28z m-19744 -18 c3 -6 -1 -7 -9 -4 -18 7 -21 14 -7 14 6 0
13 -4 16 -10z m19725 -21 c0 -6 -11 -34 -24 -62 -13 -29 -29 -68 -36 -87 -7
-19 -19 -42 -27 -51 -7 -8 -13 -23 -13 -33 0 -9 -4 -15 -9 -12 -10 7 9 66 21
66 4 0 8 7 8 15 0 8 8 29 18 47 10 18 17 39 15 46 -3 6 0 12 5 12 10 0 28 56
24 73 -2 5 2 6 8 2 5 -3 10 -11 10 -16z m-110 -270 c0 -5 -7 -9 -15 -9 -9 0
-12 6 -9 15 6 15 24 11 24 -6z m-10 -28 c0 -5 -7 -14 -15 -21 -8 -7 -15 -21
-15 -31 0 -11 -4 -19 -10 -19 -5 0 -9 -3 -9 -7 1 -5 0 -11 -1 -15 -1 -5 -3
-11 -5 -15 -7 -27 -18 -42 -27 -37 -5 4 -5 10 1 17 5 7 10 15 10 19 2 18 56
118 63 118 4 0 8 -4 8 -9z m-19470 -11 c0 -5 -2 -10 -4 -10 -3 0 -8 5 -11 10
-3 6 -1 10 4 10 6 0 11 -4 11 -10z m38 -75 c-3 -3 -9 2 -12 12 -6 14 -5 15 5
6 7 -7 10 -15 7 -18z m17 -35 c3 -6 -1 -7 -9 -4 -18 7 -21 14 -7 14 6 0 13 -4
16 -10z m85 -175 c19 -23 8 -25 -14 -4 -11 11 -15 19 -9 19 6 0 16 -7 23 -15z
m19126 -114 c-33 -66 -63 -118 -65 -115 -5 5 111 234 119 234 3 0 -21 -54 -54
-119z m-19095 57 c11 -21 11 -22 -4 -9 -10 7 -17 17 -17 22 0 15 9 10 21 -13z
m13 -49 c-6 -11 -24 -2 -24 11 0 5 7 7 15 4 8 -4 12 -10 9 -15z m96 -172 c0
-4 -6 -2 -14 5 -8 7 -12 16 -9 21 2 4 -3 10 -11 13 -9 3 -13 11 -10 16 6 9 44
-38 44 -55z m17 -33 c-3 -3 -12 -4 -19 -1 -8 3 -5 6 6 6 11 1 17 -2 13 -5z
m177 -335 c-3 -5 -10 -7 -15 -3 -5 3 -7 10 -3 15 3 5 10 7 15 3 5 -3 7 -10 3
-15z m34 -47 c6 -18 -15 -14 -22 4 -4 10 -1 14 6 12 6 -2 14 -10 16 -16z m36
-81 c-9 -10 -26 18 -18 30 5 9 9 8 14 -7 4 -10 6 -21 4 -23z m86 -121 c6 -11
8 -20 6 -20 -3 0 -10 9 -16 20 -6 11 -8 20 -6 20 3 0 10 -9 16 -20z m18152
-88 c-7 -2 -10 -7 -7 -11 7 -12 -22 -47 -31 -38 -5 4 -4 11 2 15 6 4 14 17 18
30 5 13 12 19 19 15 8 -5 8 -8 -1 -11z m-18062 -59 c0 -7 -26 3 -32 12 -15 20
-8 24 12 8 11 -10 20 -19 20 -20z m15 -22 c3 -5 2 -12 -3 -15 -5 -3 -9 1 -9 9
0 17 3 19 12 6z m63 -102 c9 -12 9 -16 -1 -16 -7 0 -14 9 -14 20 -1 11 -1 18
0 16 2 -2 8 -11 15 -20z m17877 -8 c-3 -6 -11 -9 -16 -6 -5 4 -9 -2 -10 -12 0
-10 -3 -13 -5 -6 -8 19 16 57 28 45 6 -6 7 -15 3 -21z m-17750 -191 c-3 -5 -1
-10 6 -10 7 0 10 -3 6 -6 -9 -9 -28 6 -22 17 4 5 8 9 11 9 3 0 2 -4 -1 -10z
m105 -149 c0 -6 5 -11 10 -11 6 0 10 -9 10 -21 0 -13 4 -18 12 -13 7 4 8 3 4
-5 -9 -14 -26 -5 -26 14 0 7 -7 16 -16 19 -8 3 -13 10 -10 15 3 5 -1 12 -10
15 -8 3 -12 10 -9 16 7 11 35 -12 35 -29z m154 -210 c12 -14 14 -19 4 -18 -7
2 -14 6 -15 11 -1 5 -7 13 -15 17 -7 5 -8 9 -2 9 6 0 19 -9 28 -19z m17086
-21 c0 -6 -10 -21 -22 -34 -13 -13 -30 -35 -38 -49 -19 -32 -214 -277 -257
-323 -18 -19 -30 -34 -27 -34 3 0 -11 -16 -30 -36 -19 -20 -41 -34 -48 -31 -8
3 -5 6 6 6 11 1 17 4 13 7 -8 8 16 33 26 27 4 -2 7 0 7 5 0 6 11 23 24 38 14
16 46 56 71 89 25 33 63 80 85 105 78 89 90 105 96 123 3 9 9 17 14 17 5 0 12
10 16 22 6 19 53 78 61 78 2 0 3 -5 3 -10z m-17060 -26 c0 -8 -5 -12 -10 -9
-6 4 -8 11 -5 16 9 14 15 11 15 -7z m25 -14 c3 -5 1 -10 -4 -10 -6 0 -11 5
-11 10 0 6 2 10 4 10 3 0 8 -4 11 -10z m13 -29 c-2 -4 8 -18 22 -29 19 -16 21
-20 8 -18 -28 4 -63 56 -38 56 6 0 9 -4 8 -9z m79 -98 c7 -6 13 -19 13 -28 0
-9 5 -13 10 -10 6 3 10 1 10 -4 0 -16 -16 -13 -30 4 -7 8 -9 15 -5 15 4 0 -3
9 -16 20 -14 12 -18 19 -9 18 8 -2 20 -8 27 -15z m16506 -385 c-16 -17 -40
-44 -55 -60 -15 -15 -25 -28 -22 -28 4 0 -8 -13 -25 -29 -17 -16 -31 -34 -31
-40 0 -6 -6 -11 -13 -11 -8 0 -20 -11 -27 -25 -7 -14 -17 -25 -22 -25 -13 0 0
19 48 70 24 25 42 47 42 50 -1 7 116 129 125 130 4 0 -5 -14 -20 -32z m-16193
2 c12 -8 11 -10 -7 -10 -13 0 -23 5 -23 10 0 13 11 13 30 0z m131 -155 c0 -5
-5 -11 -13 -13 -10 -3 -10 -1 1 6 11 8 10 11 -5 15 -16 5 -16 6 -1 4 10 -1 18
-6 18 -12z m73 -78 c17 -12 17 -14 2 -20 -10 -4 -16 -1 -16 7 0 8 -6 17 -12
19 -7 3 -8 6 -2 6 5 1 18 -5 28 -12z m15781 -7 c-4 -6 -11 -8 -16 -5 -5 4 -9
-3 -9 -14 0 -12 -7 -21 -15 -21 -14 0 -13 3 1 25 15 23 53 38 39 15z m-15738
-46 c-3 -3 -12 -4 -19 -1 -8 3 -5 6 6 6 11 1 17 -2 13 -5z m15683 -14 c0 -5
-2 -10 -4 -10 -3 0 -8 5 -11 10 -3 6 -1 10 4 10 6 0 11 -4 11 -10z m-20 -20
c0 -5 -5 -10 -11 -10 -5 0 -7 5 -4 10 3 6 8 10 11 10 2 0 4 -4 4 -10z m-15588
-44 c7 4 8 2 4 -4 -12 -20 -26 -13 -25 11 1 17 2 18 6 4 2 -9 9 -14 15 -11z
m15558 14 c0 -5 -8 -10 -17 -10 -15 0 -16 2 -3 10 19 12 20 12 20 0z m-20 -30
c0 -5 -4 -10 -10 -10 -5 0 -10 5 -10 10 0 6 5 10 10 10 6 0 10 -4 10 -10z
m-15485 -29 c7 -13 -8 -22 -21 -13 -6 4 -13 15 -17 25 -6 15 -4 16 13 7 10 -5
21 -14 25 -19z m15432 -9 c-10 -10 -14 -21 -11 -25 3 -3 -7 -14 -23 -23 -15
-10 -31 -23 -35 -29 -4 -5 -8 -7 -8 -3 0 8 82 98 89 98 2 0 -3 -8 -12 -18z
m-15367 -82 c0 -5 -2 -10 -4 -10 -3 0 -8 5 -11 10 -3 6 -1 10 4 10 6 0 11 -4
11 -10z m50 -35 c13 -14 21 -25 18 -25 -2 0 -15 11 -28 25 -13 14 -21 25 -18
25 2 0 15 -11 28 -25z m15200 -20 c-7 -8 -17 -15 -23 -15 -5 0 -2 9 8 20 21
23 35 19 15 -5z m-15145 -35 c3 -5 2 -10 -4 -10 -5 0 -13 5 -16 10 -3 6 -2 10
4 10 5 0 13 -4 16 -10z m82 -90 c51 -56 38 -59 -17 -5 -27 27 -50 53 -50 58 0
12 27 -9 67 -53z m14968 31 c-3 -6 -11 -11 -17 -11 -6 0 -6 6 2 15 14 17 26
13 15 -4z m-51 -43 c-15 -27 -27 -38 -35 -32 -5 3 1 14 13 24 27 23 32 24 22
8z m-66 -69 c-2 -6 -7 -9 -10 -7 -4 2 -22 -10 -40 -27 -25 -22 -24 -20 4 8 38
37 53 46 46 26z m-14688 -64 c8 -10 15 -24 16 -34 2 -14 1 -14 -10 2 -7 9 -18
17 -23 17 -6 0 -13 9 -16 21 -4 13 -10 18 -18 13 -8 -4 -10 -3 -5 4 8 14 35 3
56 -23z m14580 -30 c-7 -9 -15 -13 -19 -10 -3 3 1 10 9 15 21 14 24 12 10 -5z
m-14525 -35 c3 -5 1 -10 -4 -10 -6 0 -11 5 -11 10 0 6 2 10 4 10 3 0 8 -4 11
-10z m14475 -24 c0 -3 -4 -8 -10 -11 -5 -3 -10 -1 -10 4 0 6 5 11 10 11 6 0
10 -2 10 -4z m-14395 -37 c38 -34 62 -69 47 -69 -6 0 -12 9 -15 21 -4 14 -10
18 -19 13 -7 -4 -10 -4 -6 0 9 11 -14 35 -28 29 -6 -2 -14 5 -17 16 -7 27 -4
27 38 -10z m14345 -9 c0 -5 -4 -10 -10 -10 -5 0 -10 5 -10 10 0 6 5 10 10 10
6 0 10 -4 10 -10z m-42 -30 c-7 -11 -17 -20 -22 -20 -5 0 -1 9 9 20 10 11 20
20 22 20 2 0 -2 -9 -9 -20z m-14180 -73 c14 -10 16 -27 2 -27 -5 0 -9 5 -7 11
1 6 -6 13 -16 14 -11 2 -22 6 -25 9 -8 9 30 2 46 -7z m14087 -27 c-3 -5 -10
-10 -16 -10 -5 0 -9 5 -9 10 0 6 7 10 16 10 8 0 12 -4 9 -10z m-14021 -41 c-3
-5 -1 -9 4 -9 6 0 13 -8 16 -17 6 -15 5 -15 -13 1 -11 10 -18 23 -15 27 3 5
-2 9 -11 9 -9 0 -13 5 -10 10 5 8 11 7 21 -1 7 -6 11 -15 8 -20z m56 -45 c0
-8 7 -14 15 -14 8 0 15 -7 15 -16 0 -14 -1 -14 -16 0 -8 9 -19 16 -24 16 -5 0
-8 9 -7 19 1 22 17 18 17 -5z m13845 -3 c-3 -6 -14 -11 -23 -11 -13 0 -13 2 4
14 21 15 30 14 19 -3z m-13405 -356 c7 -9 8 -15 2 -15 -5 0 -12 7 -16 15 -3 8
-4 15 -2 15 2 0 9 -7 16 -15z m35 -25 c3 -5 1 -10 -4 -10 -6 0 -11 5 -11 10 0
6 2 10 4 10 3 0 8 -4 11 -10z m12905 -181 c0 -6 -4 -7 -10 -4 -5 3 -10 11 -10
16 0 6 5 7 10 4 6 -3 10 -11 10 -16z m-113 -81 c-3 -8 -6 -5 -6 6 -1 11 2 17
5 13 3 -3 4 -12 1 -19z m-2665 -1260 c-7 -7 -12 -8 -12 -2 0 14 12 26 19 19 2
-3 -1 -11 -7 -17z"/>
<path d="M12235 19329 c-716 -24 -1467 -177 -2168 -443 -1497 -568 -2759
-1661 -3539 -3066 -414 -745 -683 -1554 -802 -2415 -73 -525 -77 -1193 -11
-1720 24 -198 25 -205 52 -355 147 -849 444 -1638 901 -2395 92 -151 196 -310
210 -319 5 -3 21 2 36 10 16 7 34 14 40 14 7 0 53 13 102 29 235 75 290 89
280 72 -4 -6 -18 -11 -32 -11 -19 0 -26 -6 -31 -31 -5 -26 -9 -30 -29 -25 -17
5 -24 1 -29 -13 -3 -11 -14 -23 -24 -26 -24 -7 -63 -62 -65 -91 0 -13 -11 -29
-24 -35 -19 -11 -24 -10 -37 7 -13 16 -16 17 -25 4 -5 -8 -8 -21 -5 -28 3 -7
1 -11 -4 -8 -5 3 -11 -4 -14 -15 -4 -14 -10 -18 -18 -13 -11 6 4 -16 54 -81
156 -206 267 -336 278 -329 5 3 6 -3 2 -12 -5 -13 -3 -16 10 -11 12 4 14 2 10
-11 -6 -16 -5 -16 14 0 23 21 35 23 32 6 -3 -25 1 -39 10 -33 5 3 13 0 17 -6
4 -8 3 -9 -4 -5 -7 4 -12 2 -12 -5 0 -6 -9 -1 -20 12 -10 13 -19 19 -20 13 0
-16 45 -55 55 -47 4 5 5 3 1 -4 -12 -22 87 -124 114 -116 13 4 13 3 1 -5 -22
-15 5 -44 38 -42 70 5 100 0 95 -15 -4 -8 -10 -15 -16 -15 -5 0 -17 -7 -25
-16 -15 -14 -8 -24 73 -105 127 -129 292 -271 299 -259 9 14 -4 32 -17 24 -7
-4 -8 -2 -4 5 4 6 12 8 18 5 6 -4 14 0 19 7 8 12 11 11 20 -3 5 -10 17 -18 26
-18 10 0 13 -5 8 -18 -4 -9 -8 -22 -8 -28 0 -13 -15 -13 -35 -1 -7 5 -9 13 -6
19 5 7 2 8 -5 4 -9 -6 -8 -13 5 -27 9 -10 21 -17 28 -16 6 1 10 -3 9 -8 -1 -6
7 -11 17 -11 10 0 16 6 13 13 -3 7 -1 13 5 13 6 0 9 -8 8 -17 -2 -10 4 -24 13
-31 9 -8 10 -11 4 -7 -7 3 -13 2 -13 -4 0 -16 172 -151 183 -144 6 4 7 1 3 -6
-5 -8 0 -14 13 -18 12 -3 21 -9 21 -14 0 -5 5 -9 11 -9 6 0 8 7 5 16 -3 9 -2
12 5 9 6 -4 8 -13 5 -21 -6 -17 52 -67 70 -60 8 3 13 0 11 -6 -2 -13 99 -89
288 -215 93 -62 138 -86 157 -85 15 1 29 -2 33 -8 3 -5 1 -10 -6 -10 -21 0 -1
-15 106 -79 98 -59 119 -63 108 -20 -3 10 -3 19 1 19 10 0 37 -60 31 -70 -3
-5 13 -19 36 -30 22 -12 38 -16 34 -10 -4 6 -4 28 0 48 6 31 8 34 17 19 5 -10
7 -33 5 -52 -5 -33 -3 -36 57 -68 71 -39 96 -49 95 -39 -4 22 3 32 20 32 24 0
36 -16 19 -23 -10 -4 -10 -6 0 -6 6 -1 12 -9 12 -20 0 -17 47 -46 66 -41 4 1
10 -3 13 -8 3 -6 51 -32 105 -57 86 -41 101 -45 110 -32 6 8 23 15 38 15 23 0
26 -4 25 -31 -2 -23 3 -32 21 -38 13 -5 22 -5 22 1 0 6 -4 10 -9 10 -5 0 -5
17 0 41 10 43 4 79 -12 79 -5 0 -9 23 -9 50 0 43 3 50 19 50 16 0 21 -10 26
-58 9 -86 14 -102 30 -102 16 0 26 -31 22 -71 -1 -18 -7 -25 -17 -22 -8 2 -4
-3 10 -11 30 -18 49 -21 32 -4 -14 14 -16 94 -2 103 21 13 11 55 -15 65 -36
13 -31 33 12 57 28 16 35 6 32 -54 -1 -27 4 -59 12 -73 13 -23 15 -17 21 80 4
58 12 166 17 240 6 74 15 194 20 265 5 72 14 173 20 225 7 52 18 156 27 230 8
74 19 162 24 195 5 33 14 112 20 175 8 72 20 132 33 160 25 56 89 193 132 285
18 39 49 104 68 145 19 41 57 125 85 185 36 78 54 132 62 183 5 40 17 112 26
160 8 48 19 114 24 147 5 33 18 110 28 170 11 61 22 126 25 145 3 19 7 45 10
56 3 12 11 66 17 120 6 55 17 110 25 124 136 259 175 351 220 525 13 50 37
140 53 200 17 61 33 131 37 158 6 39 11 47 29 47 24 0 53 18 109 68 22 18 40
32 42 30 2 -2 4 -30 6 -63 3 -74 8 -92 20 -73 7 10 9 9 9 -5 0 -10 5 -15 10
-12 6 4 10 -9 10 -32 0 -22 6 -48 14 -59 14 -18 16 -17 35 26 17 40 20 42 20
18 1 -16 5 -28 10 -28 5 0 11 -12 13 -27 2 -16 10 -29 18 -29 8 -1 20 -2 27
-3 6 0 14 -10 18 -20 8 -27 53 -55 68 -43 15 12 96 7 110 -7 6 -6 21 -11 34
-11 13 0 23 -5 23 -11 0 -5 4 -8 10 -4 5 3 17 2 27 -3 61 -31 102 -42 175 -46
46 -3 71 -2 56 0 -16 3 -28 10 -28 15 0 6 5 7 10 4 6 -3 16 -3 23 2 19 12 40
13 53 2 13 -11 186 -15 204 -4 30 19 185 44 374 62 44 4 85 15 115 31 25 13
80 42 121 64 41 21 90 51 110 66 48 37 100 72 106 72 3 0 12 7 21 15 8 9 41
33 72 54 73 50 162 129 287 255 55 55 139 139 187 184 48 46 114 116 147 155
32 40 68 82 79 94 11 12 22 31 26 43 3 11 11 20 16 20 5 0 9 7 9 15 0 7 6 18
13 22 6 4 17 17 24 28 7 11 47 76 89 145 97 159 92 149 149 300 9 25 24 61 32
80 18 41 37 246 29 307 -6 47 8 98 24 88 6 -3 10 4 10 17 0 34 11 68 22 68 5
0 8 -24 7 -52 -1 -29 8 -100 19 -158 19 -96 36 -203 78 -500 14 -100 24 -170
43 -305 9 -61 53 -270 71 -336 7 -27 18 -40 40 -49 17 -7 37 -27 46 -45 24
-52 49 -73 79 -68 30 6 56 -14 92 -70 27 -42 26 -47 -25 -187 -11 -30 -35
-102 -52 -160 -17 -58 -35 -114 -40 -125 -5 -11 -16 -47 -25 -80 -9 -33 -28
-96 -42 -140 -14 -44 -29 -100 -34 -125 -4 -25 -22 -110 -39 -190 -16 -80 -34
-167 -40 -195 -5 -27 -14 -59 -19 -70 -11 -22 -23 -59 -130 -392 -40 -122 -79
-227 -87 -233 -7 -7 -14 -17 -14 -22 0 -6 -18 -37 -40 -70 -22 -33 -40 -62
-40 -65 0 -3 -13 -22 -30 -43 -16 -21 -30 -41 -30 -44 0 -4 -18 -34 -40 -67
-22 -33 -40 -64 -40 -69 0 -5 -3 -10 -7 -12 -10 -4 -53 -65 -53 -74 0 -4 -10
-21 -23 -38 -13 -17 -27 -38 -30 -46 -8 -17 -21 -37 -89 -139 -27 -39 -48 -73
-48 -77 0 -3 -13 -23 -28 -43 -15 -20 -33 -47 -39 -61 -6 -14 -36 -78 -67
-143 -31 -65 -56 -121 -56 -125 0 -4 -22 -52 -48 -107 -27 -55 -57 -118 -67
-140 -37 -85 -119 -264 -156 -340 -22 -45 -39 -85 -39 -89 0 -5 -11 -32 -24
-60 -13 -28 -32 -71 -41 -96 -10 -25 -26 -63 -36 -86 -10 -23 -19 -48 -19 -57
0 -9 -4 -18 -9 -21 -5 -3 -12 -18 -15 -33 -4 -16 -15 -46 -26 -68 -38 -80 -60
-134 -60 -149 0 -8 -6 -27 -14 -43 -47 -92 -66 -137 -66 -152 0 -9 -7 -27 -16
-39 -9 -13 -13 -26 -10 -29 3 -3 1 -14 -5 -25 -7 -13 -7 -23 0 -32 12 -14 5
-46 -10 -46 -5 0 -8 -3 -8 -7 3 -18 -1 -33 -9 -30 -10 3 -48 -37 -50 -54 -5
-44 -16 -79 -24 -79 -6 0 -8 -12 -5 -29 3 -15 2 -32 -4 -38 -6 -6 -4 -20 6
-39 10 -19 15 -23 15 -11 0 9 4 17 9 17 13 0 24 -52 13 -59 -16 -10 -52 -81
-52 -102 0 -15 -5 -19 -15 -15 -8 3 -15 1 -15 -4 0 -12 3 -12 110 -11 203 3
640 47 660 67 12 11 12 14 1 14 -11 0 -9 5 4 20 20 22 41 27 28 8 -4 -7 -9
-21 -10 -32 -3 -16 1 -18 28 -12 17 3 38 6 45 6 8 0 14 7 14 15 0 9 9 15 23
15 18 0 19 -2 7 -10 -21 -14 16 -13 95 1 51 10 62 15 58 29 -3 10 0 21 6 24
10 6 15 -6 12 -26 0 -5 7 -8 17 -8 28 0 62 12 58 19 -3 4 0 13 5 21 8 13 10
13 19 0 7 -11 10 -11 10 -2 0 7 5 10 10 7 6 -4 7 -11 4 -17 -5 -8 1 -9 17 -5
13 4 30 7 37 7 7 0 10 5 7 10 -3 6 -2 10 4 10 6 0 8 7 5 15 -4 10 0 15 11 15
9 0 13 4 10 10 -3 5 0 7 9 4 11 -4 13 -12 6 -30 -11 -28 -26 -30 165 17 198
49 307 82 296 89 -6 3 4 6 23 6 50 0 118 25 112 41 -3 8 2 13 15 13 11 0 18 4
14 10 -3 5 -13 7 -23 4 -14 -5 -15 -4 -2 5 13 9 12 11 -3 11 -13 0 -17 5 -13
18 2 9 7 27 11 38 5 20 31 34 64 34 10 0 8 -7 -8 -24 -27 -29 -39 -81 -17 -73
9 4 18 1 22 -5 4 -6 3 -9 -2 -6 -5 3 -17 -3 -26 -14 -23 -23 -25 -23 74 8 92
29 128 49 106 57 -8 4 -7 6 5 6 10 1 16 5 13 9 -2 4 4 14 16 21 11 7 17 8 13
2 -3 -6 -1 -11 6 -11 8 0 8 -4 -1 -15 -16 -20 -19 -20 85 19 52 20 81 35 70
37 -17 4 -31 49 -14 49 4 0 9 10 11 21 2 12 13 28 25 36 21 14 23 14 29 -2 4
-10 2 -26 -5 -37 -6 -10 -9 -23 -6 -28 3 -5 1 -11 -5 -15 -20 -12 -10 -24 13
-16 12 5 21 14 19 20 -4 21 27 81 42 81 20 0 22 -50 4 -69 -11 -10 -8 -10 14
-1 14 7 29 22 32 34 6 24 42 50 57 40 6 -4 3 -14 -8 -27 -21 -24 -26 -25 105
32 121 53 332 156 457 224 263 142 681 410 669 429 -4 7 -3 8 4 4 13 -8 92 41
92 57 0 5 -14 7 -32 3 -25 -4 -29 -3 -16 5 15 8 16 13 5 30 -10 16 -9 21 3 29
8 5 21 8 28 5 8 -3 24 -5 37 -5 19 0 23 -5 20 -20 -3 -17 5 -14 53 20 56 40
148 118 125 106 -17 -9 -65 38 -58 57 4 9 -4 23 -19 35 -44 34 -33 44 42 40
l67 -3 3 29 c4 33 -10 46 -51 46 -16 0 -38 5 -50 12 -20 10 -97 85 -97 94 0 6
90 3 140 -4 33 -5 46 -12 48 -26 3 -14 0 -17 -13 -12 -11 4 -15 2 -13 -6 9
-25 30 -12 43 26 14 41 11 60 -14 90 -15 18 -14 19 17 14 22 -3 32 -1 32 9 0
7 4 13 9 13 5 0 12 18 16 39 7 40 29 70 42 57 4 -4 8 -19 10 -34 8 -76 14 -93
31 -90 13 2 17 -5 19 -32 1 -19 2 -41 2 -47 1 -7 11 -13 24 -13 12 0 29 -5 37
-10 15 -10 23 -50 10 -50 -4 0 -11 -8 -15 -17 -3 -10 9 -3 29 16 24 23 34 41
31 55 -2 12 -4 24 -4 27 -1 3 -14 4 -30 1 -23 -3 -30 1 -36 17 -7 23 15 175
22 154 3 -7 11 -13 19 -13 8 0 17 -7 20 -15 9 -23 39 -18 54 9 17 33 8 52 -34
67 -33 12 -51 39 -26 39 6 0 10 8 10 19 0 37 64 58 66 21 3 -48 5 -52 19 -46
22 8 30 -39 17 -91 -7 -24 -12 -50 -12 -58 0 -21 15 -19 17 3 1 9 11 42 22 72
11 30 20 69 21 85 0 19 7 35 20 43 11 7 20 18 20 26 0 10 7 12 23 9 21 -5 21
-5 4 9 -14 10 -17 21 -11 42 6 25 9 27 44 21 28 -5 41 -3 47 8 4 7 20 22 35
31 18 12 28 28 30 48 4 46 31 58 62 29 30 -28 56 -22 56 14 0 27 31 48 38 27
2 -7 11 -20 20 -28 15 -15 16 -15 23 2 9 25 3 29 -56 43 -44 11 -51 11 -63 -6
-11 -15 -14 -16 -22 -3 -14 22 -12 30 6 30 11 0 14 5 10 16 -3 9 -6 22 -6 30
0 8 -6 11 -16 7 -12 -4 -14 0 -8 23 4 16 11 40 16 53 8 23 10 23 26 8 14 -15
15 -20 4 -38 -8 -12 -12 -22 -10 -22 2 -1 23 -12 47 -25 24 -12 47 -20 49 -17
3 3 -8 19 -24 36 -23 25 -26 32 -14 39 8 5 15 19 15 32 0 32 38 36 58 7 10
-13 22 -19 31 -16 17 7 22 37 6 37 -5 0 -10 7 -10 15 0 8 4 15 10 15 21 0 66
-26 86 -49 27 -31 51 -35 65 -9 8 15 8 19 0 14 -6 -4 -11 0 -11 8 0 9 -14 19
-32 24 -35 9 -55 46 -22 40 12 -2 23 7 32 25 7 15 16 27 20 27 13 -1 57 -28
55 -34 -9 -20 -1 -27 14 -15 15 12 16 12 8 -1 -5 -9 0 -8 13 4 20 17 21 30 4
32 -4 0 -15 4 -24 8 -9 4 -21 5 -25 3 -5 -3 -10 6 -11 20 -1 18 4 26 18 30 11
3 20 13 20 23 0 26 29 33 58 14 13 -9 23 -12 20 -8 -2 5 -10 22 -18 38 -13 25
-13 29 3 41 22 16 23 50 1 41 -9 -3 -20 -6 -25 -6 -6 0 -7 -9 -4 -20 5 -16 2
-20 -17 -20 -27 0 -68 33 -68 55 0 13 38 41 50 36 3 -1 6 7 8 19 7 45 66 46
105 2 21 -23 60 -19 55 6 -2 9 -19 27 -38 40 -41 27 -49 42 -23 42 11 0 22 2
25 5 7 8 -67 85 -81 85 -7 0 -11 14 -9 35 1 25 7 35 19 35 19 0 69 -54 69 -75
0 -20 46 -64 75 -71 35 -9 31 1 -16 46 -34 32 -39 41 -25 46 26 10 19 31 -24
65 -33 27 -38 35 -25 41 15 9 55 -6 55 -21 0 -11 83 -51 114 -53 14 -1 26 -6
26 -11 0 -5 6 -7 14 -4 8 3 17 3 20 -1 13 -13 35 -9 41 6 3 9 3 13 -1 10 -3
-4 -32 5 -63 19 -31 14 -83 34 -116 45 -32 10 -66 25 -75 32 -8 8 -32 19 -52
27 -41 14 -55 47 -15 34 12 -4 42 -12 67 -18 25 -7 56 -20 70 -29 27 -20 64
-24 58 -7 -2 6 -28 24 -58 40 -30 16 -47 29 -37 29 9 0 17 5 17 10 0 15 -29
12 -46 -5 -23 -23 -55 -18 -107 15 -26 16 -65 33 -87 36 -30 5 -40 11 -40 25
0 14 7 19 25 19 22 0 24 3 15 20 -6 10 -28 24 -50 30 -52 14 -54 35 -2 26 20
-4 43 -7 50 -6 40 5 81 3 106 -5 21 -6 27 -5 22 4 -4 6 -18 11 -31 11 -18 0
-23 4 -19 15 8 19 0 19 -38 -1 -24 -12 -36 -13 -54 -5 -26 12 -33 41 -9 41 24
0 17 16 -12 29 -23 11 -25 10 -14 -3 11 -13 9 -16 -11 -21 -26 -7 -78 9 -78
24 0 5 9 12 19 16 15 5 18 11 12 33 -4 15 -12 27 -18 27 -6 0 -15 4 -20 9 -14
15 93 -3 141 -24 24 -10 46 -16 49 -13 3 2 17 -3 31 -12 14 -9 29 -14 34 -11
6 3 15 -1 22 -9 6 -7 37 -19 68 -25 31 -6 111 -24 177 -40 176 -43 250 -60
263 -60 15 0 108 167 203 365 308 641 514 1321 613 2025 14 96 28 211 31 255
4 44 11 123 16 175 16 165 22 692 10 883 -63 1008 -303 1890 -750 2762 -663
1294 -1725 2342 -3031 2993 -523 261 -1133 470 -1695 581 -563 111 -1033 149
-1620 130z m255 -1628 c45 -5 92 -17 118 -31 36 -19 52 -22 96 -16 49 5 59 3
128 -35 84 -46 134 -87 139 -114 2 -10 19 -25 37 -32 30 -12 32 -12 32 7 0 27
18 25 102 -10 38 -16 77 -30 85 -30 8 0 43 -13 77 -28 33 -16 88 -39 121 -52
33 -13 74 -35 92 -49 17 -14 61 -48 98 -76 59 -45 88 -86 72 -102 -3 -3 -51
20 -107 51 -55 31 -107 56 -115 56 -8 0 -15 4 -15 9 0 9 -65 51 -78 51 -4 0
10 -16 32 -36 24 -22 39 -44 39 -60 0 -13 3 -24 8 -24 5 0 9 -7 9 -15 0 -8 4
-15 8 -15 9 0 32 -58 32 -79 0 -11 -3 -11 -15 -1 -8 7 -15 9 -15 4 0 -5 -5 -1
-10 8 -6 9 -24 19 -40 23 -17 4 -30 11 -30 16 0 19 -28 8 -45 -17 -12 -19 -14
-29 -6 -37 23 -23 10 -27 -19 -7 -18 13 -30 17 -30 9 0 -7 -10 -9 -30 -5 -17
3 -30 1 -30 -4 0 -6 -23 -8 -55 -5 -49 4 -75 -6 -42 -18 9 -3 9 -9 -1 -26 -10
-18 -10 -21 3 -21 8 0 15 -4 15 -10 0 -5 5 -10 12 -10 6 0 19 -6 27 -14 15
-13 37 -21 173 -61 32 -9 73 -29 93 -45 l35 -28 -25 -6 c-16 -4 -23 -11 -19
-18 5 -8 1 -9 -12 -4 -65 26 -289 62 -304 49 -8 -7 89 -95 98 -89 14 8 121
-101 137 -140 18 -44 18 -47 3 -37 -7 4 2 -10 20 -32 33 -41 42 -75 18 -75 -7
0 -19 6 -25 14 -9 11 -96 46 -114 46 -15 0 -15 -36 -1 -51 10 -11 12 -19 6
-19 -6 0 -15 6 -19 13 -12 18 -73 67 -84 67 -6 0 -5 -9 1 -21 7 -11 8 -24 4
-27 -4 -4 -9 -1 -11 6 -5 13 -33 17 -33 4 0 -5 16 -27 36 -50 37 -44 32 -54
-13 -25 -14 10 -32 18 -40 19 -8 2 -41 26 -74 54 -46 40 -79 58 -147 82 -48
16 -154 63 -237 103 -82 40 -172 83 -200 94 -55 24 -135 39 -135 25 0 -5 55
-34 122 -64 67 -30 156 -73 197 -94 42 -21 103 -50 136 -63 65 -25 120 -61
169 -108 17 -16 48 -45 69 -62 20 -18 36 -36 35 -40 0 -5 2 -16 7 -26 11 -25
-2 -34 -26 -18 -31 18 -32 9 -4 -32 26 -37 32 -67 16 -67 -5 0 -12 -9 -16 -20
-10 -33 -56 -48 -111 -38 -27 5 -64 8 -81 8 -20 0 -33 4 -33 12 0 9 -3 9 -12
0 -10 -10 -10 -15 2 -22 13 -9 13 -11 0 -20 -12 -7 -12 -12 -2 -22 6 -6 12
-20 12 -30 0 -15 -6 -13 -36 14 -20 18 -50 42 -67 53 -31 19 -31 19 -22 0 15
-36 18 -75 5 -75 -7 0 -9 -8 -5 -20 9 -29 -7 -25 -40 10 -16 17 -35 28 -43 25
-7 -2 -11 -1 -8 4 3 5 -5 8 -19 7 -14 0 -25 -2 -25 -4 0 -2 15 -22 34 -45 42
-53 119 -193 114 -208 -2 -7 -20 10 -39 37 -55 75 -150 175 -161 168 -5 -3 -7
-17 -4 -30 9 -34 -2 -30 -44 16 -47 51 -67 53 -62 5 2 -19 8 -38 13 -41 5 -3
9 -12 9 -20 0 -11 -6 -13 -20 -9 -25 8 -25 4 -1 -37 11 -18 27 -50 36 -71 15
-37 15 -38 -5 -27 -11 6 -27 22 -37 36 -36 56 -117 92 -187 85 -14 -1 25 -41
40 -41 24 0 25 -20 1 -29 -23 -9 -24 -13 -16 -53 4 -24 8 -56 9 -72 l0 -29
-22 20 c-13 11 -31 23 -40 26 -15 5 -18 0 -18 -30 l0 -36 -32 49 c-46 70 -72
84 -50 27 6 -15 13 -41 17 -56 5 -26 4 -27 -15 -17 -11 6 -20 18 -20 26 0 8
-4 12 -10 9 -5 -3 -10 -2 -10 3 0 5 -28 39 -62 76 -41 44 -69 66 -84 66 -38 0
-35 -15 11 -56 46 -39 54 -61 34 -81 -9 -9 -20 -5 -46 14 -18 14 -36 23 -40
19 -3 -3 -1 -6 5 -6 6 0 21 -18 32 -40 20 -40 20 -40 1 -40 -11 0 -36 9 -55
20 l-35 19 39 -52 c25 -33 35 -54 28 -58 -6 -4 -8 -18 -4 -33 6 -24 4 -26 -26
-27 -33 -1 -43 -2 -94 -13 -19 -4 -42 0 -66 12 -21 11 -48 17 -62 15 -20 -4
-33 2 -56 27 -36 39 -48 34 -25 -10 29 -56 3 -58 -54 -5 -55 51 -68 54 -51 11
15 -41 13 -45 -26 -42 -24 2 -46 14 -68 35 -18 17 -35 29 -39 25 -3 -3 -20 4
-38 17 -22 15 -34 19 -37 11 -2 -7 -12 -12 -23 -12 -10 0 -19 -6 -19 -14 0 -8
-6 -16 -14 -19 -9 -4 -12 -14 -9 -26 9 -33 -23 -26 -37 9 -11 28 -15 29 -50
24 -33 -5 -38 -3 -44 17 -6 23 -7 23 -20 5 -19 -24 -33 -14 -56 39 -26 60 -44
69 -37 19 11 -77 25 -120 65 -204 26 -54 33 -75 19 -57 -27 35 -84 132 -98
170 -6 15 -15 27 -21 27 -6 0 -7 7 -4 16 3 8 2 12 -4 9 -6 -3 -10 -3 -11 2 0
4 -2 16 -4 26 -2 9 1 17 6 17 17 0 9 25 -13 39 -16 10 -23 10 -26 2 -2 -6 -8
-8 -13 -5 -6 4 -6 11 1 19 15 18 3 42 -13 26 -18 -18 -25 -13 -43 27 -10 20
-19 41 -22 45 -2 5 5 4 16 -2 14 -7 23 -8 27 -1 4 6 11 8 16 5 12 -8 11 3 -4
46 -33 94 -68 101 -69 13 -1 -27 -5 -52 -10 -55 -11 -7 -12 -65 -3 -126 9 -58
-7 -55 -27 5 -20 62 -17 203 7 256 13 31 14 44 5 61 -17 32 -150 185 -161 185
-21 0 -6 -43 39 -112 76 -115 94 -147 90 -159 -2 -6 -25 13 -52 43 -103 114
-116 125 -116 96 0 -10 36 -94 61 -140 10 -19 -5 -26 -16 -8 -4 6 -15 8 -25 5
-10 -3 -21 -1 -25 5 -9 14 -35 13 -35 -2 0 -6 7 -19 15 -28 12 -13 13 -22 3
-47 -9 -23 -9 -41 -1 -70 11 -39 32 -121 40 -160 4 -19 1 -23 -17 -23 -16 0
-20 -4 -16 -15 3 -8 1 -15 -5 -15 -5 0 -13 8 -16 18 -4 9 -13 27 -21 40 -11
17 -18 20 -28 11 -8 -6 -14 -23 -14 -37 l0 -26 -16 22 c-20 28 -34 20 -34 -21
0 -24 -6 -35 -25 -43 -22 -11 -29 -8 -65 28 -22 22 -40 49 -40 59 0 22 -35 43
-58 34 -9 -4 -57 -13 -106 -20 -48 -8 -90 -16 -93 -19 -3 -3 -3 -12 0 -21 7
-17 63 -20 112 -7 44 13 55 6 48 -31 -6 -37 -27 -57 -60 -57 -23 0 -91 -33
-108 -53 -6 -8 -42 -12 -98 -11 -54 0 -96 -4 -110 -12 -36 -21 -69 -35 -74
-30 -2 2 5 19 16 37 28 45 27 48 -16 46 -38 -3 -48 -13 -58 -60 -6 -30 -25
-28 -25 4 0 12 -11 24 -27 30 -61 25 -73 33 -73 51 0 11 -14 33 -31 50 -31 31
-30 43 6 50 14 3 19 11 18 26 -2 13 5 26 17 32 28 15 25 32 -10 52 -17 9 -36
30 -43 45 -6 15 -20 36 -29 45 -24 24 -23 35 7 62 14 13 25 32 25 44 0 11 6
32 14 47 12 23 12 31 1 49 -7 12 -16 35 -20 53 -5 26 -3 32 14 38 10 3 26 17
35 30 14 21 25 25 61 25 38 0 47 4 54 23 5 13 16 29 25 36 9 7 16 18 16 24 0
10 71 82 161 164 13 12 33 33 45 45 32 35 93 86 125 105 15 9 37 37 49 62 11
25 24 53 29 61 26 45 81 179 81 198 0 13 19 43 44 70 24 26 46 57 50 68 4 12
24 34 46 49 21 15 46 42 54 60 12 25 28 38 64 51 68 25 78 35 55 52 -17 13
-17 14 1 27 10 8 56 26 103 40 46 15 104 40 128 56 23 16 56 29 71 29 29 0
159 45 182 63 6 5 12 17 12 27 0 9 9 28 19 42 11 13 23 37 26 51 9 33 21 34
45 5 14 -18 21 -20 32 -11 8 7 24 10 36 6 18 -4 25 1 37 31 18 42 39 54 66 38
11 -7 20 -8 24 -2 7 12 185 7 205 -5 8 -5 69 -10 135 -11 117 -2 185 8 185 27
0 14 28 11 56 -8 25 -16 34 -17 189 -10 17 1 53 -1 82 -5 46 -6 54 -4 74 18
14 15 29 22 39 18 8 -3 54 -8 103 -10 74 -3 87 -1 87 12 0 13 6 15 28 10 15
-4 61 -10 102 -15z m1117 -741 c7 -11 9 -21 3 -25 -9 -6 -13 -1 -23 28 -9 23
5 22 20 -3z m-77 -520 c0 -5 -2 -10 -4 -10 -3 0 -8 5 -11 10 -3 6 -1 10 4 10
6 0 11 -4 11 -10z m371 -112 c26 -12 40 -13 47 -6 8 8 18 6 37 -6 14 -9 29
-14 34 -12 5 3 26 -24 47 -61 42 -71 95 -130 132 -144 12 -5 22 -17 22 -26 0
-10 14 -29 30 -43 17 -14 30 -29 30 -33 0 -5 10 -17 23 -28 13 -11 17 -18 9
-19 -8 0 0 -11 16 -25 28 -23 29 -28 19 -56 -10 -24 -9 -32 3 -39 8 -5 11 -12
8 -15 -4 -4 2 -30 12 -58 31 -88 62 -214 58 -233 -3 -16 -7 -14 -22 11 l-17
30 7 -65 c3 -36 8 -97 10 -137 1 -40 8 -81 14 -92 5 -11 15 -57 21 -102 6 -46
15 -87 20 -93 68 -81 107 -207 85 -274 -8 -22 6 -111 27 -169 11 -33 11 -33
64 -26 71 8 115 -25 60 -46 -32 -13 -94 -119 -106 -183 -5 -29 -21 -78 -35
-108 -14 -30 -26 -72 -26 -92 0 -21 -11 -76 -24 -122 -14 -46 -25 -106 -26
-133 -2 -53 14 -222 30 -323 9 -60 7 -156 -6 -239 -5 -31 -4 -33 10 -22 9 8
16 28 16 47 0 18 5 36 10 39 6 3 10 -1 10 -9 0 -13 4 -14 25 -4 31 14 41 43
21 64 -20 19 -20 28 -1 44 12 10 15 7 21 -14 7 -29 19 -34 28 -11 3 8 14 15
25 15 19 0 66 41 94 81 15 21 12 140 -4 170 -5 10 -9 31 -9 48 0 24 -4 31 -20
31 -26 0 -26 19 1 28 11 5 20 12 20 17 -2 23 35 7 48 -20 17 -34 24 -190 9
-217 -6 -14 -5 -18 7 -18 9 0 17 6 19 13 2 6 11 41 21 77 9 36 21 73 27 83 5
11 12 50 15 89 5 53 11 76 28 94 l22 24 14 -47 c17 -62 17 -183 0 -303 -7 -52
-14 -115 -15 -140 -3 -47 -20 -90 -36 -90 -5 0 -15 -19 -21 -42 -7 -24 -16
-47 -19 -53 -19 -27 -90 -167 -90 -177 0 -14 -77 -118 -104 -140 -12 -10 -30
-18 -42 -18 -11 0 -33 -13 -49 -30 -16 -16 -33 -30 -37 -30 -5 0 -16 16 -24
35 -8 20 -19 33 -24 30 -6 -3 -10 0 -10 7 0 10 -2 10 -9 0 -4 -8 -12 -14 -17
-15 -5 -1 -9 -24 -9 -51 0 -50 -17 -72 -29 -39 -20 55 -74 113 -105 113 -33 0
-121 -143 -121 -198 0 -30 -26 -92 -39 -92 -18 0 -12 -28 9 -43 16 -11 21 -26
21 -65 1 -29 -4 -58 -10 -66 -9 -11 -10 -25 -2 -52 11 -41 -1 -80 -22 -67 -8
5 -8 8 1 11 15 5 16 69 0 78 -7 4 -8 3 -4 -5 4 -6 -3 -31 -15 -54 -20 -37 -23
-57 -23 -164 -1 -91 -4 -123 -13 -123 -17 0 -17 -42 -1 -58 10 -10 7 -17 -13
-35 -13 -13 -29 -22 -36 -20 -6 2 -17 -21 -25 -54 -8 -32 -20 -57 -26 -56 -5
1 -15 -11 -21 -27 -5 -17 -17 -33 -25 -36 -9 -3 -13 -10 -10 -15 3 -5 -4 -9
-16 -9 -14 0 -26 -12 -38 -37 -20 -44 -36 -65 -79 -106 -18 -17 -33 -37 -33
-44 0 -21 -23 -41 -51 -45 -24 -3 -69 -46 -69 -66 0 -10 -55 -27 -64 -20 -2 2
-13 -6 -25 -16 -21 -19 -21 -19 -43 0 -13 10 -26 22 -29 26 -3 5 -14 1 -25 -7
-26 -19 -38 -19 -30 2 8 21 -13 4 -88 -70 -32 -33 -55 -47 -67 -44 -11 3 -32
-9 -57 -33 -32 -30 -45 -54 -68 -126 -15 -49 -31 -93 -36 -99 -4 -5 -8 -21 -8
-36 0 -15 -4 -31 -10 -34 -5 -3 -10 -13 -10 -22 0 -8 -9 -26 -20 -40 -11 -14
-20 -42 -21 -62 0 -20 -9 -49 -20 -66 -10 -16 -21 -37 -25 -45 -3 -8 -14 -33
-25 -56 -10 -23 -19 -48 -19 -56 0 -17 -60 -82 -91 -99 -11 -6 -33 -30 -48
-54 -16 -25 -31 -42 -35 -38 -3 3 -6 -1 -6 -10 0 -20 -38 -57 -59 -57 -9 0
-29 -7 -46 -16 -36 -19 -88 -24 -265 -27 -129 -3 -154 0 -254 33 -19 6 -34 6
-41 0 -7 -5 -15 -7 -18 -3 -4 3 -12 1 -19 -4 -7 -6 -27 -14 -45 -17 -17 -4
-33 -13 -36 -19 -3 -8 -29 -12 -78 -11 -96 2 -133 11 -164 40 -14 13 -31 24
-36 24 -6 0 -8 4 -4 9 3 5 -11 15 -30 21 -19 6 -35 15 -35 20 0 5 -6 15 -12
22 -21 23 -78 143 -78 163 1 22 29 78 30 58 0 -7 12 -1 26 12 15 14 39 25 55
25 15 0 31 5 34 10 3 6 19 10 35 10 16 0 32 5 35 11 4 6 13 8 20 5 7 -2 16 3
20 12 6 16 7 16 20 -1 9 -12 15 -14 20 -7 4 7 11 8 18 2 13 -10 115 -17 209
-15 54 1 118 20 118 35 0 4 15 10 34 14 37 6 82 46 72 62 -3 6 1 12 9 16 9 3
15 18 15 36 0 16 5 30 10 30 6 0 10 10 10 22 0 17 3 19 12 10 16 -16 28 -15
28 3 0 9 8 19 18 22 29 11 65 50 60 65 -3 7 -2 22 2 32 8 23 -20 55 -47 54
-10 0 -45 3 -78 7 -33 4 -85 3 -115 -2 -79 -14 -151 -6 -183 20 -29 24 -43 73
-28 97 8 12 13 12 36 0 19 -10 28 -11 37 -2 17 17 25 15 31 -8 6 -25 35 -26
45 -2 7 18 36 23 122 22 19 0 49 7 68 16 35 16 88 12 76 -7 -4 -7 4 -9 22 -7
18 2 28 8 26 16 -1 8 1 11 6 8 5 -3 51 8 103 25 52 16 102 28 113 25 10 -3 26
-1 35 4 9 4 30 14 48 20 50 18 77 109 38 124 -8 3 -31 -3 -51 -13 -21 -11 -43
-17 -49 -15 -6 3 -36 -2 -66 -9 -54 -15 -72 -14 -226 13 -192 33 -226 34 -314
16 -46 -10 -88 -22 -94 -26 -22 -16 -56 -17 -112 -4 -96 23 -260 -3 -355 -55
-61 -34 -101 -41 -92 -16 4 10 0 15 -15 15 -12 0 -21 5 -21 10 0 6 7 10 16 10
12 0 14 5 8 18 -8 20 -9 55 0 77 6 16 56 21 56 6 0 -4 11 -6 25 -3 14 2 25 8
25 13 0 4 12 14 27 21 15 7 34 26 41 41 13 27 37 36 44 16 2 -6 15 -1 31 11
21 16 27 30 27 58 0 20 4 44 9 51 5 8 6 22 1 30 -4 9 -4 27 1 40 8 19 12 21
24 11 22 -19 28 -7 16 35 -11 40 -3 138 10 129 5 -3 13 -23 19 -46 l11 -40 24
22 23 22 7 -22 c4 -12 8 -38 10 -59 1 -20 7 -47 13 -61 l11 -25 0 29 c1 17 11
40 23 53 17 18 19 26 10 35 -15 15 -16 78 -2 78 6 0 10 8 10 17 0 15 2 15 14
-2 13 -18 14 -17 21 13 5 25 12 32 31 32 17 0 25 7 30 25 4 15 13 25 24 25 10
0 20 6 22 12 3 9 10 7 23 -6 16 -16 20 -27 24 -70 1 -13 31 15 31 29 0 7 7 16
15 19 21 8 44 -39 27 -56 -7 -7 -12 -18 -12 -26 0 -12 3 -12 15 -2 8 6 19 9
25 5 5 -3 16 -3 23 2 6 4 19 8 27 8 24 0 25 35 1 35 -13 0 -26 10 -33 25 -6
14 -16 25 -21 25 -5 0 -5 6 2 13 6 8 8 16 5 19 -3 3 -1 9 5 12 5 4 15 -3 21
-14 15 -28 27 -25 69 18 70 71 84 109 55 147 -9 13 -12 30 -8 49 5 24 3 28
-10 23 -15 -6 -43 3 -135 45 -82 37 -98 35 -183 -21 -161 -108 -281 -117 -422
-33 -16 9 -37 24 -47 32 -10 8 -24 20 -32 27 -8 6 -18 32 -21 57 -4 25 -12 46
-17 46 -6 0 -8 12 -4 29 3 17 2 38 -3 48 -6 12 -6 53 0 118 8 71 8 100 0 103
-8 2 -8 11 -1 29 7 20 6 35 -6 60 -17 34 -41 36 -32 2 3 -10 1 -22 -4 -25 -5
-3 -9 0 -9 6 0 6 -4 8 -10 5 -15 -9 -12 -31 5 -49 14 -13 14 -20 1 -57 -15
-44 -13 -64 6 -53 7 4 8 -8 5 -37 -9 -81 -15 -103 -26 -107 -6 -2 -8 -8 -5
-13 3 -6 -1 -20 -8 -32 -8 -12 -18 -33 -22 -47 -15 -51 -23 -197 -14 -260 5
-36 10 -96 12 -134 3 -48 9 -73 19 -81 19 -14 57 -107 57 -138 0 -12 -7 -35
-16 -52 -8 -16 -13 -37 -11 -47 3 -11 0 -15 -9 -11 -8 3 -14 -1 -14 -11 0 -9
-6 -15 -12 -13 -8 1 -13 -10 -13 -30 0 -17 -3 -29 -8 -26 -12 7 -67 -37 -67
-54 0 -11 -5 -13 -17 -8 -10 4 -29 10 -43 13 -14 2 -32 10 -40 17 -8 7 -26 15
-40 17 -14 1 -25 8 -25 13 -2 28 -18 54 -36 57 -11 2 -19 5 -18 8 5 11 -22 50
-32 47 -6 -1 -14 5 -18 13 -5 8 -13 25 -19 37 -7 13 -12 29 -12 37 0 8 -6 16
-14 19 -8 3 -21 28 -31 56 -9 28 -21 51 -26 51 -5 0 -9 8 -9 18 0 10 -5 23
-11 29 -6 6 -11 17 -13 26 -3 20 -38 88 -54 106 -8 8 -12 27 -9 45 4 30 -25
86 -66 128 -7 7 -13 22 -14 33 -4 69 -93 237 -133 250 -11 4 -18 11 -14 16 3
5 -6 19 -19 29 -16 13 -28 35 -32 61 -4 23 -20 55 -37 75 -20 23 -29 41 -25
55 4 16 2 19 -14 14 -21 -7 -24 2 -9 25 6 10 4 20 -6 32 -21 23 -12 33 42 49
26 8 53 23 61 35 8 14 25 21 45 22 18 0 38 8 45 18 10 13 15 15 27 5 10 -9 16
-9 21 -1 4 6 14 9 22 6 9 -4 21 -2 28 4 7 6 37 11 66 11 30 1 63 6 73 12 11 5
47 11 80 13 34 2 75 6 92 9 26 4 33 2 37 -14 4 -18 12 -20 73 -18 43 2 69 7
72 15 5 17 32 15 32 -3 0 -18 30 -20 31 -2 0 10 2 10 6 0 2 -7 10 -13 16 -13
17 0 67 -45 67 -60 0 -10 3 -10 15 0 8 6 19 9 24 5 6 -3 13 7 17 22 10 50 26
83 39 83 12 0 16 30 31 255 7 110 -16 293 -46 349 -11 22 -30 51 -43 65 -13
14 -35 46 -49 71 -53 93 -219 261 -276 279 -23 8 -45 11 -49 8 -3 -4 -11 -2
-18 3 -14 11 -196 -3 -237 -19 -22 -8 -116 -32 -188 -47 -25 -6 -350 -6 -382
-1 -31 5 -57 39 -64 83 -8 56 -50 160 -57 142 -4 -8 -6 -7 -6 5 -1 11 -10 31
-20 46 -12 17 -20 43 -20 67 1 21 1 68 2 104 1 96 -14 264 -25 271 -13 9 35
142 68 184 41 55 76 69 150 61 34 -4 65 -2 68 3 7 11 109 29 208 36 43 3 108
11 145 19 70 15 140 19 303 19 106 0 139 -4 190 -26 52 -22 104 -32 96 -18 -4
6 -16 11 -27 11 -20 0 -65 38 -55 47 3 3 38 -5 78 -17 87 -26 215 -30 298 -9
41 10 65 24 95 55 23 23 68 55 100 72 33 16 80 51 104 76 41 45 76 57 76 27 0
-19 31 -29 93 -30 88 -1 136 36 167 130 9 27 20 49 24 49 4 0 14 -11 21 -25
20 -37 43 -33 35 6 -7 30 -6 32 16 26 13 -4 56 -7 94 -7 l71 0 15 -42 c11 -30
22 -43 35 -43 20 0 20 1 9 85 -8 61 5 79 39 57 14 -9 34 -17 45 -17 34 0 51
-12 51 -35 0 -13 -4 -27 -10 -30 -5 -3 -10 -11 -10 -17 0 -22 39 25 42 51 3
22 9 27 40 31 21 3 46 12 55 20 10 8 32 25 50 38 35 25 93 118 93 150 0 33 32
59 91 71 44 9 67 22 105 56 27 25 64 52 81 61 31 15 35 15 80 -8 27 -14 62
-33 80 -44 32 -19 56 -13 35 8 -23 23 -11 43 38 67 36 18 55 36 72 68 13 24
29 43 35 43 10 0 9 10 -3 40 -9 22 -13 47 -10 56 11 28 86 13 143 -28 26 -20
54 -33 61 -31 7 3 37 -14 68 -37 30 -22 59 -38 65 -35 7 5 6 11 -2 21 -9 11
-9 14 1 14 24 0 -1 53 -46 94 -24 23 -44 47 -44 53 0 17 23 22 40 9 8 -7 31
-19 51 -28z m106 -10 c-3 -8 -6 -5 -6 6 -1 11 2 17 5 13 3 -3 4 -12 1 -19z
m137 -59 c14 -17 26 -41 26 -54 0 -13 4 -26 9 -29 5 -3 11 -17 13 -30 5 -23 4
-24 -17 -10 -42 27 -96 154 -66 154 5 0 21 -14 35 -31z m-3559 -339 c3 -5 2
-10 -4 -10 -5 0 -13 5 -16 10 -3 6 -2 10 4 10 5 0 13 -4 16 -10z m506 -593
c33 -28 33 -29 4 -11 -31 18 -41 29 -76 79 -18 26 -17 25 9 -4 16 -19 44 -47
63 -64z m-1440 1 c85 -64 83 -63 230 -63 147 0 151 -3 54 -45 -74 -32 -163
-28 -235 11 -52 28 -120 94 -120 117 0 16 36 6 71 -20z m318 -780 c6 -40 15
-95 21 -123 10 -57 47 -316 60 -420 4 -39 13 -90 20 -115 10 -37 9 -46 -3 -55
-11 -8 -12 -16 -6 -28 11 -18 14 -165 5 -175 -16 -15 -27 37 -33 148 -3 47 -9
89 -14 94 -14 15 -11 64 5 73 15 9 4 53 -14 53 -5 0 -10 11 -10 24 0 35 -17
41 -40 14 -26 -31 -25 -43 5 -66 24 -19 36 -50 15 -37 -6 4 -17 1 -25 -5 -20
-16 -45 -5 -45 19 0 11 -5 23 -10 26 -6 4 -8 15 -5 25 3 11 2 27 -4 37 -10 19
7 53 26 53 6 0 16 7 24 16 12 14 14 14 26 -2 23 -31 33 23 22 118 -5 45 -13
126 -19 178 -5 52 -12 106 -14 120 -13 66 -15 100 -7 100 5 0 14 -33 20 -72z
m43 -809 c-2 -39 -5 -69 -7 -67 -6 6 -12 168 -6 173 11 11 16 -34 13 -106z
m1196 -28 c75 -39 75 -94 0 -106 -24 -4 -62 -13 -86 -21 -23 -8 -47 -14 -53
-14 -9 0 21 48 48 78 7 7 16 25 19 40 12 50 17 51 72 23z m-417 -93 c5 -13 32
-36 59 -53 26 -16 46 -33 43 -37 -6 -10 -114 -10 -130 0 -9 6 -17 59 -14 100
2 20 31 13 42 -10z m273 14 c8 -14 -8 -29 -48 -46 -48 -20 -80 -20 -96 -1 -10
13 -9 15 11 16 13 1 32 1 42 0 9 -1 17 3 17 9 0 19 64 38 74 22z m3562 -66 c8
-8 14 -24 14 -36 l0 -22 -25 23 c-26 25 -33 49 -14 49 6 0 17 -6 25 -14z
m-4346 -878 c12 -22 12 -29 0 -43 -12 -15 -14 -15 -22 0 -5 8 -13 13 -19 10
-5 -4 -9 9 -9 29 0 27 4 34 18 32 9 -2 24 -14 32 -28z m1118 -1434 c14 9 42
-4 42 -19 0 -7 6 -15 13 -18 9 -3 14 -22 14 -54 -1 -26 -2 -38 -4 -26 -7 39
-63 36 -63 -3 0 -8 -6 -14 -12 -14 -20 1 -48 26 -48 43 0 8 -8 18 -17 21 -14
6 -15 9 -4 16 9 5 14 24 13 49 l-2 42 29 -22 c16 -12 34 -19 39 -15z m-88 -5
c0 -5 -4 -9 -10 -9 -5 0 -10 7 -10 16 0 8 5 12 10 9 6 -3 10 -10 10 -16z m168
-193 c3 -12 -1 -17 -10 -14 -7 3 -15 13 -16 22 -3 12 1 17 10 14 7 -3 15 -13
16 -22z m275 -843 c-7 -2 -19 -2 -25 0 -7 3 -2 5 12 5 14 0 19 -2 13 -5z
m5097 -509 c0 -8 -4 -12 -10 -9 -5 3 -10 10 -10 16 0 5 5 9 10 9 6 0 10 -7 10
-16z m500 -214 c0 -5 -2 -10 -4 -10 -3 0 -8 5 -11 10 -3 6 -1 10 4 10 6 0 11
-4 11 -10z m25 -10 c3 -5 1 -10 -4 -10 -6 0 -11 5 -11 10 0 6 2 10 4 10 3 0 8
-4 11 -10z m55 -20 c0 -5 -4 -10 -9 -10 -6 0 -13 5 -16 10 -3 6 1 10 9 10 9 0
16 -4 16 -10z m70 -32 c0 -4 7 -8 16 -8 8 0 12 -5 8 -11 -4 -8 -9 -8 -17 0
-14 14 -40 15 -32 1 3 -5 2 -10 -3 -10 -5 0 -12 8 -16 18 -3 9 -9 22 -12 29
-4 9 2 9 25 0 17 -6 31 -15 31 -19z m89 -31 c6 -8 8 -16 5 -19 -6 -7 -54 14
-54 25 0 12 37 8 49 -6z m-129 -23 c0 -2 -7 -4 -15 -4 -8 0 -15 4 -15 10 0 5
7 7 15 4 8 -4 15 -8 15 -10z m189 7 c16 -10 6 -31 -14 -31 -17 0 -28 17 -20
30 8 12 16 12 34 1z m-41 -46 c-2 -26 -12 -32 -23 -15 -3 6 -1 10 6 10 7 0 4
7 -7 15 -19 14 -18 14 3 15 18 0 22 -5 21 -25z m49 -1 c-3 -3 -12 -4 -19 -1
-8 3 -5 6 6 6 11 1 17 -2 13 -5z m86 -211 c-7 -2 -19 -2 -25 0 -7 3 -2 5 12 5
14 0 19 -2 13 -5z m32 -93 c3 -5 -3 -10 -14 -10 -12 0 -21 5 -21 10 0 6 6 10
14 10 8 0 18 -4 21 -10z m120 -112 c-19 -11 -30 -5 -21 11 4 6 14 7 22 4 15
-5 14 -7 -1 -15z m-285 -88 c0 -5 -6 -10 -14 -10 -8 0 -18 5 -21 10 -3 6 3 10
14 10 12 0 21 -4 21 -10z m210 0 c0 -5 -6 -10 -14 -10 -8 0 -18 5 -21 10 -3 6
3 10 14 10 12 0 21 -4 21 -10z m86 -84 c8 -8 14 -17 14 -19 0 -9 -54 -23 -71
-20 -14 3 -15 8 -5 28 12 28 40 32 62 11z m-182 -21 c-4 -8 -8 -15 -11 -15 -2
0 -11 7 -19 15 -14 13 -13 15 10 15 18 0 24 -4 20 -15z m78 -80 c0 -5 -5 -11
-11 -13 -6 -2 -11 4 -11 13 0 9 5 15 11 13 6 -2 11 -8 11 -13z m-77 -86 c10
-15 -1 -23 -20 -15 -9 3 -13 10 -10 16 8 13 22 13 30 -1z m-136 -20 c29 -10
43 -29 21 -29 -13 0 -70 29 -70 35 0 8 15 6 49 -6z m-10509 -89 c0 -13 -41
-30 -54 -22 -11 6 22 32 41 32 7 0 13 -5 13 -10z m10694 -1 c14 -7 28 -18 31
-27 7 -18 7 -18 -27 -26 -23 -5 -30 -2 -43 23 -8 17 -15 32 -15 36 0 9 28 6
54 -6z m-10584 -9 c-20 -13 -33 -13 -25 0 3 6 14 10 23 10 15 0 15 -2 2 -10z
m3 -87 c10 -9 -63 -42 -80 -36 -10 4 -10 7 0 17 22 23 67 33 80 19z m10497
-15 l25 -23 -24 -3 c-26 -4 -57 20 -47 37 10 16 19 14 46 -11z m-110 -23 c0
-8 -4 -15 -10 -15 -5 0 -10 7 -10 15 0 8 5 15 10 15 6 0 10 -7 10 -15z m-280
-29 c0 -15 -24 -28 -34 -19 -13 14 -5 33 14 33 11 0 20 -6 20 -14z m-10071
-28 c-22 -42 -32 -46 -53 -27 -22 21 -22 20 14 36 41 19 53 16 39 -9z m10146
-68 c3 -5 1 -10 -4 -10 -6 0 -11 5 -11 10 0 6 2 10 4 10 3 0 8 -4 11 -10z
m-142 -17 c13 -8 7 -21 -12 -26 -23 -6 -51 10 -51 29 0 11 7 13 28 8 15 -4 30
-9 35 -11z m-9933 -69 c0 -8 -5 -12 -10 -9 -6 4 -8 11 -5 16 9 14 15 11 15 -7z
m10150 -19 c0 -29 -34 -36 -44 -9 -10 27 -7 34 19 34 20 0 25 -5 25 -25z
m-140 -21 c0 -9 -5 -14 -12 -12 -18 6 -21 28 -4 28 9 0 16 -7 16 -16z m-122
-32 c2 -23 -1 -32 -12 -32 -19 0 -40 36 -32 57 11 27 41 10 44 -25z m202 -62
c0 -4 -8 -14 -18 -23 -23 -21 -46 -4 -32 24 9 16 50 16 50 -1z m-132 -24 c4
-30 -10 -46 -40 -46 -21 0 -23 19 -6 55 15 34 42 28 46 -9z m-99 0 c13 -16 8
-73 -7 -88 -17 -17 -52 10 -52 38 0 53 33 81 59 50z m-9679 -13 c-8 -3 -18
-11 -22 -17 -5 -7 -8 -4 -8 7 0 11 7 17 23 16 15 0 17 -2 7 -6z m10 -45 c0
-10 3 -9 9 1 5 8 16 11 30 6 44 -14 10 -25 -51 -16 -12 2 -10 21 2 21 6 0 10
-6 10 -12z m9719 -84 c-3 -44 -19 -74 -40 -74 -15 0 -22 29 -11 43 5 6 13 27
17 45 11 52 36 42 34 -14z m-165 19 c8 -20 -20 -52 -33 -38 -10 12 4 55 18 55
5 0 12 -8 15 -17z m-94 -89 c0 -8 -4 -14 -9 -14 -11 0 -22 26 -14 34 9 9 23
-3 23 -20z m78 -18 c2 -19 -2 -32 -12 -38 -9 -5 -16 -17 -16 -28 0 -29 -11
-50 -27 -50 -12 0 -13 11 -7 68 3 37 12 70 18 74 21 15 41 3 44 -26z m-372
-183 c-3 -4 -18 0 -32 7 -23 13 -23 15 -7 21 18 6 51 -17 39 -28z m-185 -328
c28 -15 29 -16 13 -40 -21 -32 -27 -31 -64 5 -47 46 -15 68 51 35z m199 -111
c0 -8 -19 -13 -24 -6 -3 5 1 9 9 9 8 0 15 -2 15 -3z m-38 -21 c-6 -2 -10 -8
-7 -13 3 -4 -2 -10 -10 -14 -9 -3 -15 0 -15 8 0 14 15 24 35 24 6 0 4 -2 -3
-5z m-51 -20 c13 -16 12 -17 -3 -4 -10 7 -18 15 -18 17 0 8 8 3 21 -13z
m-1031 -157 c0 -2 -7 -19 -15 -37 -14 -34 -20 -23 -9 19 5 18 24 33 24 18z
m-99 -189 c-8 -8 -11 -7 -11 4 0 20 13 34 18 19 3 -7 -1 -17 -7 -23z m-6445
-15 c-2 -15 -5 -29 -6 -32 -1 -3 -2 -9 -1 -15 1 -5 -6 -1 -14 9 -18 23 -18 31
-4 57 14 26 31 14 25 -19z m94 -2 c0 -34 -9 -60 -21 -60 -10 0 -12 44 -3 77 8
30 24 19 24 -17z m750 -17 c0 -7 -7 -13 -15 -13 -15 0 -21 31 -8 43 8 8 23
-12 23 -30z m-440 3 c0 -8 -4 -18 -10 -21 -5 -3 -10 3 -10 14 0 12 5 21 10 21
6 0 10 -6 10 -14z m-40 -126 c0 -10 -7 -23 -15 -30 -19 -16 -30 8 -21 46 6 21
9 24 21 14 8 -7 15 -20 15 -30z m270 -6 c0 -15 -6 -24 -15 -24 -15 0 -21 40
-9 53 12 11 24 -3 24 -29z m133 -16 l-10 -33 -8 27 c-9 36 1 66 17 50 8 -8 8
-21 1 -44z m221 -15 c-5 -5 -12 -12 -16 -18 -4 -6 -8 -2 -8 8 0 9 7 17 17 17
9 0 12 -3 7 -7z m5387 -56 c-6 -15 -18 -27 -26 -27 -13 0 -12 4 5 22 11 12 20
29 21 37 0 9 3 11 5 5 3 -6 0 -23 -5 -37z m-61 -2 c0 -8 -7 -15 -15 -15 -26 0
-18 20 13 29 1 1 2 -6 2 -14z m-5589 -28 c9 -17 21 -31 27 -30 12 3 27 -35 17
-45 -8 -8 -74 -12 -96 -6 -14 4 -15 12 -8 50 14 75 33 85 60 31z m-163 1 c16
-16 15 -63 -1 -77 -19 -15 -37 6 -37 44 0 44 14 57 38 33z m5663 -111 c-8 -8
-11 -5 -11 9 0 27 14 41 18 19 2 -9 -1 -22 -7 -28z m69 -8 c-11 -21 -22 -39
-24 -39 -7 0 2 48 13 69 22 39 31 11 11 -30z m-914 -1 c-3 -7 -7 -25 -10 -40
-4 -16 -13 -28 -21 -28 -19 0 -19 9 1 48 15 31 37 45 30 20z m224 -42 c0 -35
-21 -63 -40 -51 -15 10 -12 46 7 67 24 26 33 22 33 -16z m105 -16 c4 -13 -2
-28 -19 -45 -33 -33 -37 -32 -29 8 10 54 36 75 48 37z m89 -22 c-11 -39 -44
-66 -44 -38 0 6 7 10 16 10 8 0 13 4 10 9 -8 12 4 41 16 41 5 0 6 -10 2 -22z
m111 -30 c-4 -24 -11 -47 -16 -52 -5 -6 -9 -19 -9 -30 0 -16 -2 -18 -9 -7 -8
13 24 131 36 131 3 0 2 -19 -2 -42z m-199 -74 c-3 -9 -6 -19 -6 -23 0 -4 -7
-8 -15 -8 -18 0 -20 33 -2 40 23 10 29 7 23 -9z m-1876 -95 c0 -41 -26 -102
-50 -119 -25 -18 -30 -19 -43 -5 -18 17 -12 50 15 77 10 10 18 24 18 32 0 13
16 22 48 25 6 0 12 -4 12 -10z m1421 -73 c-19 -42 -44 -66 -57 -53 -3 3 12 30
33 61 43 65 53 61 24 -8z m260 51 c-6 -8 -8 -16 -5 -19 3 -3 1 -9 -4 -12 -6
-3 -9 0 -8 6 2 16 15 38 23 38 3 0 0 -6 -6 -13z m-1192 -69 c-6 -10 -14 -16
-20 -13 -13 8 -11 23 4 39 16 19 29 -2 16 -26z m1046 3 c-3 -6 -11 -11 -16
-11 -5 0 -4 6 3 14 14 16 24 13 13 -3z m-1605 -65 c0 -3 -4 -8 -10 -11 -5 -3
-10 -1 -10 4 0 6 5 11 10 11 6 0 10 -2 10 -4z m1287 -22 c-3 -3 -12 -4 -19 -1
-8 3 -5 6 6 6 11 1 17 -2 13 -5z m-1202 -51 c-4 -10 -9 -33 -12 -50 -3 -18
-10 -33 -14 -33 -14 0 -11 88 4 93 23 10 29 7 22 -10z m715 -3 c0 -11 -4 -20
-9 -20 -5 0 -7 9 -4 20 3 11 7 20 9 20 2 0 4 -9 4 -20z m47 -32 c-3 -8 -6 -5
-6 6 -1 11 2 17 5 13 3 -3 4 -12 1 -19z m58 12 c-3 -5 -12 -10 -18 -10 -7 0
-6 4 3 10 19 12 23 12 15 0z m-920 -80 c-12 -5 -14 -9 -6 -9 8 -1 12 -4 8 -7
-7 -7 -47 5 -47 14 0 4 15 8 33 9 26 1 28 0 12 -7z m75 6 c0 -2 -7 -7 -16 -10
-8 -3 -12 -2 -9 4 6 10 25 14 25 6z"/>
<path d="M11600 17568 c0 -11 7 -18 19 -18 11 0 23 -4 26 -10 9 -14 -28 -13
-42 1 -9 9 -24 9 -55 1 -24 -5 -74 -9 -112 -7 l-68 4 6 -32 c8 -41 60 -93 105
-108 20 -6 72 -28 116 -49 44 -21 87 -40 95 -43 8 -3 0 -6 -19 -6 l-33 -1 48
-40 c44 -36 98 -59 111 -46 3 3 -13 24 -36 48 -33 33 -41 47 -36 66 5 19 0 25
-32 39 -28 12 -33 18 -20 21 10 2 27 -4 38 -14 14 -13 22 -14 33 -5 20 17 -6
88 -43 121 -23 20 -28 31 -24 52 5 24 9 27 32 22 14 -4 34 -11 43 -15 21 -11
28 -11 28 0 0 15 -52 29 -117 33 -56 4 -63 2 -63 -14z"/>
<path d="M12040 16945 c0 -2 21 -16 46 -31 30 -18 49 -23 55 -17 7 7 -4 17
-33 32 -42 20 -68 26 -68 16z"/>
<path d="M12170 16895 c14 -16 40 -20 40 -6 0 9 -24 21 -42 21 -6 0 -6 -6 2
-15z"/>
<path d="M11285 16890 c-3 -5 -22 -10 -41 -10 -31 0 -34 -2 -34 -31 0 -16 4
-28 8 -25 5 3 16 -9 26 -25 11 -18 29 -32 47 -36 15 -3 31 -13 34 -23 3 -10
12 -21 20 -24 8 -3 12 -12 9 -20 -3 -8 0 -25 7 -38 11 -21 11 -22 -4 -9 -31
25 -17 -3 18 -39 59 -59 79 -76 72 -57 -5 13 0 15 31 10 20 -3 55 -10 77 -15
121 -29 152 -34 175 -28 l25 6 -25 16 c-14 9 -41 19 -60 23 -19 3 -54 15 -77
26 -24 10 -49 19 -57 19 -8 0 -18 5 -22 12 -4 7 -3 8 4 4 18 -11 14 5 -5 19
-24 18 -7 35 35 36 20 1 48 4 61 8 l24 6 -27 12 c-29 14 -34 31 -11 39 30 12
14 35 -42 60 -32 14 -69 24 -83 22 -14 -1 -44 9 -65 22 -88 53 -108 60 -120
40z"/>
<path d="M12015 16860 c3 -5 8 -10 11 -10 2 0 4 5 4 10 0 6 -5 10 -11 10 -5 0
-7 -4 -4 -10z"/>
<path d="M10953 16849 c18 -10 18 -11 0 -24 -17 -13 -17 -14 2 -30 29 -24 163
-85 186 -85 21 0 23 7 9 30 -6 9 -5 17 2 21 6 4 2 9 -10 13 -11 4 -24 18 -29
33 -10 30 -67 53 -133 53 -36 -1 -42 -3 -27 -11z"/>
<path d="M12224 16825 c25 -19 37 -19 30 0 -4 8 -16 15 -28 15 -21 -1 -21 -1
-2 -15z"/>
<path d="M12810 16756 c0 -3 7 -12 16 -20 23 -23 40 -19 19 4 -16 18 -35 26
-35 16z"/>
<path d="M10927 16629 c6 -8 36 -25 67 -39 53 -23 71 -40 43 -40 -7 0 -42 12
-78 26 -35 14 -87 27 -115 29 -47 2 -51 0 -46 -17 6 -26 72 -73 130 -93 90
-32 118 -46 131 -67 10 -16 10 -23 -3 -37 -9 -10 -16 -22 -16 -27 0 -11 57
-50 66 -46 4 2 11 -2 15 -10 6 -9 9 -6 9 10 0 13 9 35 21 51 l20 27 60 -12
c34 -7 63 -15 66 -18 4 -3 11 -2 18 4 10 8 201 -10 387 -38 31 -5 76 -5 100
-2 24 4 36 8 28 9 -8 0 -30 14 -49 30 -54 46 -122 71 -256 94 -42 7 -70 17
-71 25 -1 6 -2 18 -3 25 0 6 -22 24 -49 39 -26 14 -58 38 -71 52 -27 29 -53
36 -29 9 25 -29 29 -63 8 -63 -10 0 -23 7 -30 15 -7 8 -22 15 -34 15 -11 0
-34 7 -51 16 -49 26 -128 45 -136 32 -4 -6 -18 -8 -35 -4 -16 4 -47 10 -69 13
-33 5 -38 3 -28 -8z m275 -146 c26 -23 22 -35 -8 -31 -31 4 -56 48 -27 48 9 0
25 -7 35 -17z"/>
<path d="M10790 16471 c0 -9 24 -21 42 -21 6 0 6 6 -2 15 -14 16 -40 20 -40 6z"/>
<path d="M10830 16390 c0 -15 38 -32 45 -20 3 5 3 15 0 20 -8 13 -45 13 -45 0z"/>
<path d="M10625 16360 c3 -5 8 -10 11 -10 2 0 4 5 4 10 0 6 -5 10 -11 10 -5 0
-7 -4 -4 -10z"/>
<path d="M11443 16333 c9 -2 25 -2 35 0 9 3 1 5 -18 5 -19 0 -27 -2 -17 -5z"/>
<path d="M11555 16320 c28 -12 47 -12 40 0 -3 6 -18 10 -33 9 -24 0 -25 -1 -7
-9z"/>
<path d="M10677 16298 c4 -7 8 -18 9 -24 1 -6 5 -21 9 -33 9 -29 -1 -26 -30 7
-13 15 -25 21 -25 14 0 -18 62 -112 75 -112 16 0 47 58 39 73 -18 31 -67 87
-75 87 -6 0 -7 -6 -2 -12z"/>
<path d="M10330 16260 c0 -5 5 -10 11 -10 5 0 7 5 4 10 -3 6 -8 10 -11 10 -2
0 -4 -4 -4 -10z"/>
<path d="M10074 16235 c-19 -14 -19 -14 3 -15 28 0 53 10 53 21 0 14 -34 11
-56 -6z"/>
<path d="M10100 16165 c-11 -13 -10 -18 5 -29 17 -12 17 -15 2 -37 -22 -30
-21 -39 2 -39 26 0 78 50 62 60 -7 4 -11 18 -9 31 2 19 -2 25 -23 27 -14 2
-31 -4 -39 -13z"/>
<path d="M10778 16096 c-18 -36 -10 -63 16 -53 21 8 40 51 33 71 -10 26 -31
18 -49 -18z"/>
<path d="M11530 16121 c0 -5 7 -16 15 -25 8 -8 15 -19 15 -26 0 -14 48 -36 57
-26 4 4 -3 15 -15 25 -13 9 -20 20 -16 23 8 9 54 -11 84 -38 38 -33 88 -56
118 -52 27 3 27 3 -12 26 -21 13 -36 26 -32 29 17 17 -125 56 -165 46 -11 -3
-21 1 -25 11 -7 17 -24 22 -24 7z"/>
<path d="M9919 16046 c-2 -2 -30 -6 -61 -9 -60 -5 -78 -12 -78 -28 0 -6 4 -8
8 -5 4 3 25 1 46 -4 28 -6 55 -3 104 12 109 32 113 35 46 36 -34 1 -63 0 -65
-2z"/>
<path d="M10150 16014 c0 -14 4 -23 10 -19 6 3 10 15 10 26 0 10 -4 19 -10 19
-5 0 -10 -12 -10 -26z"/>
<path d="M10845 16031 c3 -5 1 -12 -5 -16 -5 -3 -7 -18 -4 -33 7 -30 24 -54
24 -34 0 7 4 12 9 12 5 0 8 -8 7 -17 0 -10 7 -19 17 -21 11 -2 17 3 17 14 0
27 -42 104 -57 104 -8 0 -12 -4 -8 -9z"/>
<path d="M10118 15941 c-15 -18 -166 -71 -203 -71 -9 0 -15 -6 -12 -12 5 -16
47 -12 146 13 41 10 82 19 91 19 19 0 45 43 36 59 -11 17 -40 13 -58 -8z"/>
<path d="M11845 15930 c3 -5 11 -10 16 -10 6 0 7 5 4 10 -3 6 -11 10 -16 10
-6 0 -7 -4 -4 -10z"/>
<path d="M10810 15826 c0 -8 5 -18 10 -21 6 -3 10 1 10 9 0 8 -4 18 -10 21 -5
3 -10 -1 -10 -9z"/>
<path d="M9638 15643 c7 -3 16 -2 19 1 4 3 -2 6 -13 5 -11 0 -14 -3 -6 -6z"/>
<path d="M13920 16221 c0 -6 4 -13 10 -16 6 -3 7 1 4 9 -7 18 -14 21 -14 7z"/>
<path d="M13990 16073 c0 -14 31 -46 37 -39 3 3 -4 15 -16 27 -12 13 -21 18
-21 12z"/>
<path d="M13354 15838 c4 -18 11 -34 16 -36 6 -2 10 -11 10 -21 0 -17 58 -81
74 -81 4 0 5 8 1 18 -11 24 -7 62 7 79 18 22 -37 73 -80 73 -34 0 -34 -1 -28
-32z"/>
<path d="M13260 15792 c0 -9 95 -102 105 -102 3 0 5 10 4 23 0 12 -15 34 -32
48 -35 29 -77 46 -77 31z"/>
<path d="M13382 15688 c6 -18 28 -21 28 -4 0 9 -7 16 -16 16 -9 0 -14 -5 -12
-12z"/>
<path d="M13660 15375 c0 -3 9 -16 20 -27 24 -26 21 -42 -8 -46 -13 -2 -19 -8
-15 -18 3 -7 9 -11 14 -8 5 3 9 1 9 -4 0 -5 9 -12 20 -15 23 -6 17 -37 -8 -37
-13 0 -13 -2 1 -18 10 -10 17 -24 17 -30 0 -7 5 -12 10 -12 10 0 14 19 11 53
-3 27 28 20 35 -8 3 -13 11 -28 17 -34 19 -15 14 61 -6 89 -13 19 -17 21 -17
7 0 -16 -2 -16 -25 -1 -21 14 -25 22 -20 46 5 21 2 35 -11 49 -16 17 -44 26
-44 14z"/>
<path d="M11479 15217 c-19 -5 -58 -7 -86 -4 -29 3 -55 1 -58 -4 -12 -19 165
-13 203 7 l27 14 -26 -2 c-14 -1 -41 -6 -60 -11z"/>
<path d="M14461 14884 c-1 -55 3 -73 14 -77 11 -5 13 0 9 21 -3 15 -9 50 -13
77 l-9 50 -1 -71z"/>
<path d="M13930 14930 c0 -5 7 -10 16 -10 8 0 12 5 9 10 -3 6 -10 10 -16 10
-5 0 -9 -4 -9 -10z"/>
<path d="M14492 14660 c0 -64 10 -111 21 -93 4 7 3 31 -2 55 -6 24 -12 54 -14
68 -3 14 -4 0 -5 -30z"/>
<path d="M14165 14690 c-10 -16 18 -70 35 -70 13 0 47 39 38 44 -62 40 -64 41
-73 26z"/>
<path d="M10130 14530 c0 -5 5 -10 11 -10 5 0 7 5 4 10 -3 6 -8 10 -11 10 -2
0 -4 -4 -4 -10z"/>
<path d="M12915 14533 c-33 -2 -67 -10 -75 -17 -8 -7 -42 -16 -74 -20 -33 -4
-73 -13 -90 -21 -19 -8 -83 -16 -169 -19 -216 -9 -333 -30 -380 -66 -14 -11
-31 -20 -39 -20 -23 0 -67 -49 -73 -82 -9 -52 -9 -138 1 -198 7 -44 5 -76 -13
-160 -29 -136 -33 -272 -10 -298 9 -10 17 -23 17 -29 0 -24 26 -33 48 -17 20
14 22 14 22 -5 0 -21 61 -56 120 -67 19 -4 37 -11 40 -15 9 -14 188 -23 203
-11 7 6 33 13 58 16 46 4 159 37 218 63 19 9 52 18 75 20 23 3 47 10 54 16 7
5 44 11 83 13 74 3 169 23 169 35 0 5 21 17 47 29 52 23 93 56 93 76 0 7 9 15
20 19 11 3 32 21 47 39 16 18 47 46 71 62 36 25 42 33 38 56 -7 34 -115 138
-145 138 -5 0 -14 6 -18 13 -21 33 -120 74 -195 81 -35 3 -114 11 -176 17 -63
6 -128 12 -145 12 -17 1 -32 7 -34 13 -4 12 38 34 65 34 10 0 42 9 72 21 86
32 148 48 224 55 39 4 76 10 81 14 6 4 43 17 83 29 55 17 72 27 70 39 -2 14 7
18 45 20 51 3 57 10 28 36 -12 11 -34 16 -67 15 -27 -1 -62 4 -79 11 -25 9
-32 9 -39 -3 -8 -12 -16 -10 -50 13 -49 33 -100 51 -135 48 -14 -1 -53 -3 -86
-5z m71 -540 c11 -10 25 -30 31 -45 10 -23 9 -30 -8 -52 -10 -13 -36 -30 -57
-37 -20 -6 -41 -15 -47 -19 -5 -5 -28 -11 -50 -15 -22 -4 -44 -11 -50 -15 -34
-25 -315 -34 -330 -10 -6 9 -9 129 -4 134 2 2 14 6 25 10 18 5 26 0 43 -27 11
-18 41 -48 66 -66 104 -74 237 -25 297 112 23 52 49 61 84 30z m-152 -82 c8
-12 -23 -45 -55 -58 -32 -14 -106 -10 -121 5 -17 17 0 30 47 35 22 3 51 10 65
15 32 14 57 15 64 3z"/>
<path d="M11430 13090 c0 -5 5 -10 10 -10 6 0 10 5 10 10 0 6 -4 10 -10 10 -5
0 -10 -4 -10 -10z"/>
<path d="M13775 12935 c-25 -28 -76 -65 -92 -65 -1 0 -3 8 -3 18 0 14 -2 15
-10 2 -5 -8 -17 -15 -26 -15 -12 0 -17 -11 -19 -39 l-2 -39 19 36 c19 37 38
49 38 23 0 -21 52 -16 77 8 13 11 23 29 23 39 0 9 9 25 20 34 11 10 20 21 20
25 0 16 -16 7 -45 -27z"/>
<path d="M13600 12850 c0 -5 5 -10 10 -10 6 0 10 5 10 10 0 6 -4 10 -10 10 -5
0 -10 -4 -10 -10z"/>
<path d="M13625 12771 c-3 -6 -15 -11 -25 -11 -11 0 -24 -9 -30 -20 -7 -14 -7
-20 0 -20 5 0 10 5 10 10 0 18 20 11 21 -7 0 -13 3 -11 12 7 6 14 16 28 21 32
6 4 8 10 4 13 -3 4 -9 2 -13 -4z"/>
<path d="M14123 12685 c3 -11 8 -32 11 -47 4 -16 11 -28 17 -28 16 0 3 61 -17
80 -15 13 -16 13 -11 -5z"/>
<path d="M12341 12104 c0 -11 3 -14 6 -6 3 7 2 16 -1 19 -3 4 -6 -2 -5 -13z"/>
<path d="M12277 12003 c-12 -11 -8 -23 8 -23 8 0 15 7 15 15 0 16 -12 20 -23
8z"/>
<path d="M12481 11110 c11 -31 29 -41 29 -16 0 13 -25 46 -35 46 -2 0 1 -13 6
-30z"/>
<path d="M1901 12774 c0 -11 3 -14 6 -6 3 7 2 16 -1 19 -3 4 -6 -2 -5 -13z"/>
<path d="M2037 10603 c-3 -5 -1 -17 4 -28 7 -17 8 -17 8 8 1 27 -4 34 -12 20z"/>
<path d="M12080 9910 c-30 -16 -69 -37 -87 -46 -17 -9 -35 -26 -41 -38 -16
-35 -68 -155 -113 -261 -24 -55 -49 -109 -56 -120 -7 -11 -13 -25 -13 -31 0
-11 -63 -155 -95 -217 -8 -16 -15 -36 -15 -46 0 -9 -5 -22 -12 -29 -7 -7 -8
-12 -2 -12 5 0 3 -4 -5 -9 -7 -5 -11 -15 -8 -22 3 -9 10 -2 18 19 8 17 17 32
21 32 4 0 8 6 8 14 0 10 8 14 23 12 60 -9 61 -9 142 -156 19 -36 45 -81 57
-100 25 -42 103 -183 125 -227 l16 -31 -59 -82 c-33 -45 -66 -92 -74 -105 -25
-37 -52 -73 -107 -140 -29 -35 -53 -67 -53 -70 0 -7 -9 -19 -82 -109 -16 -18
-28 -37 -28 -41 0 -6 -84 -112 -127 -160 -60 -66 -76 -95 -143 -260 -23 -55
-47 -113 -55 -130 -7 -16 -45 -111 -85 -210 -39 -99 -78 -193 -85 -210 -25
-60 -64 -173 -95 -275 -18 -58 -48 -157 -67 -220 -19 -63 -40 -135 -47 -160
-23 -79 -54 -182 -90 -300 -20 -63 -39 -130 -42 -148 -4 -18 -11 -35 -15 -38
-5 -3 -9 -27 -9 -54 0 -38 4 -50 18 -54 113 -32 500 -111 692 -140 143 -22
443 -56 451 -51 3 3 9 39 12 82 12 151 27 276 41 347 27 136 29 166 11 166 -8
0 -18 -7 -21 -15 -4 -8 -13 -15 -21 -15 -15 0 -40 -17 -107 -72 -19 -16 -37
-28 -42 -28 -4 0 -19 -11 -33 -24 -38 -35 -170 -71 -261 -71 l-75 0 2 34 c1
26 11 44 42 74 23 21 41 47 41 56 0 10 17 30 38 43 20 14 58 46 84 71 26 25
55 47 65 49 11 2 18 12 18 25 0 33 10 37 98 39 45 1 101 4 124 8 35 6 42 5 47
-12 9 -28 34 -23 46 11 15 45 13 59 -9 52 -11 -3 -22 -1 -26 5 -4 7 -17 9 -30
6 -12 -3 -62 -6 -111 -7 -80 -1 -98 2 -168 32 -101 42 -139 78 -155 146 -20
81 -5 102 89 124 41 10 118 23 172 30 93 11 97 11 123 -10 15 -11 35 -21 44
-21 27 0 60 -29 83 -73 20 -40 21 -41 31 -20 7 17 3 37 -19 89 -23 55 -28 81
-27 138 2 122 8 156 33 173 22 15 24 15 41 -5 9 -12 19 -28 22 -35 8 -23 21 4
28 61 4 31 22 122 39 202 17 80 37 181 45 225 8 44 19 103 25 130 5 28 17 88
25 134 9 46 19 91 24 100 9 18 44 120 86 256 48 154 142 431 152 449 5 9 27
29 49 44 22 15 111 100 198 189 l157 161 -63 101 c-35 56 -68 109 -73 119 -25
42 -99 163 -136 222 -23 36 -62 99 -87 140 -24 41 -55 89 -67 105 -12 17 -35
55 -53 85 -17 31 -42 66 -55 78 l-25 23 -20 -29 c-12 -15 -27 -47 -34 -70 -8
-26 -19 -42 -29 -42 -8 0 -55 41 -103 90 -49 50 -89 90 -90 90 -1 0 -26 -13
-56 -30z m-379 -2020 c29 -16 23 -30 -14 -30 -38 0 -48 6 -40 26 6 17 27 18
54 4z m93 -99 c10 -11 15 -24 12 -30 -4 -6 -2 -20 4 -31 9 -16 8 -25 -1 -36
-11 -14 -14 -13 -22 1 -5 9 -18 20 -29 24 -11 4 -26 24 -33 44 -12 35 -12 36
14 40 14 2 29 5 32 6 3 0 14 -8 23 -18z m-180 -37 c9 -3 16 -11 16 -16 0 -14
31 -37 51 -38 8 0 25 -13 37 -30 18 -23 30 -30 57 -30 36 0 47 -16 19 -27 -17
-6 -124 27 -124 38 0 4 -10 11 -22 15 -13 4 -35 16 -49 28 -20 17 -24 27 -18
44 9 24 10 25 33 16z"/>
<path d="M17978 9163 c7 -3 16 -2 19 1 4 3 -2 6 -13 5 -11 0 -14 -3 -6 -6z"/>
<path d="M17860 9089 c0 -5 7 -9 15 -9 9 0 18 -7 21 -15 4 -9 19 -15 36 -15
27 0 29 2 17 17 -13 15 -10 16 31 11 25 -3 39 -4 32 -1 -6 3 -10 8 -8 11 2 4
-29 8 -70 9 -41 1 -74 -3 -74 -8z"/>
<path d="M18044 8685 c-9 -22 9 -37 40 -37 25 0 41 -21 30 -39 -13 -22 5 -6
21 17 9 15 12 23 6 20 -6 -4 -21 3 -33 14 -38 36 -57 43 -64 25z"/>
<path d="M18084 8582 c7 -12 -20 -43 -35 -40 -9 2 -13 -5 -12 -19 2 -13 -2
-23 -8 -23 -5 0 -7 -4 -4 -10 3 -5 -1 -10 -9 -10 -9 0 -15 -6 -13 -12 1 -7 -8
-14 -19 -16 -15 -2 -21 -10 -21 -28 0 -33 7 -30 42 19 17 23 47 65 68 94 29
40 35 53 22 53 -9 0 -14 -3 -11 -8z"/>
<path d="M17967 8574 c-11 -11 3 -24 24 -24 12 0 19 5 17 13 -5 14 -31 21 -41
11z"/>
<path d="M17921 8390 c-8 -4 -11 -16 -6 -29 7 -23 19 -20 35 9 11 21 -8 34
-29 20z"/>
<path d="M17800 8294 c0 -18 23 -44 40 -44 25 0 35 17 20 35 -12 14 -60 21
-60 9z"/>
<path d="M17743 8192 c-22 -3 -33 -22 -14 -22 5 0 16 -7 24 -15 13 -12 17 -12
30 3 15 16 15 19 -1 28 -9 5 -27 8 -39 6z"/>
<path d="M17621 8176 c-10 -12 -8 -17 10 -27 13 -6 32 -20 43 -30 15 -15 22
-16 28 -7 5 8 1 17 -9 23 -9 6 -27 20 -39 33 -18 19 -23 20 -33 8z"/>
<path d="M17636 8095 c-21 -16 -13 -35 14 -35 10 0 22 -5 25 -10 8 -12 25 -4
25 12 0 6 -3 8 -7 5 -3 -4 -14 4 -22 17 -14 21 -18 23 -35 11z"/>
<path d="M2840 8019 c0 -5 5 -7 10 -4 6 3 10 8 10 11 0 2 -4 4 -10 4 -5 0 -10
-5 -10 -11z"/>
<path d="M17564 7951 c4 -5 13 -8 21 -7 25 4 25 12 -1 14 -14 1 -23 -2 -20 -7z"/>
<path d="M2890 7945 c0 -5 5 -17 10 -25 5 -8 10 -10 10 -5 0 6 -5 17 -10 25
-5 8 -10 11 -10 5z"/>
<path d="M17437 7909 c7 -7 15 -10 18 -7 3 3 -2 9 -12 12 -14 6 -15 5 -6 -5z"/>
<path d="M17491 7840 c-12 -17 -26 -28 -30 -25 -5 2 -14 -2 -20 -9 -7 -8 -8
-17 -3 -20 5 -3 28 15 52 39 24 25 40 45 34 45 -6 0 -20 -14 -33 -30z"/>
<path d="M17317 7833 c-15 -14 -6 -33 22 -48 32 -16 35 -8 13 33 -13 22 -23
27 -35 15z"/>
<path d="M17398 7813 c7 -3 16 -2 19 1 4 3 -2 6 -13 5 -11 0 -14 -3 -6 -6z"/>
<path d="M17263 7668 c-6 -7 -10 -20 -10 -29 0 -19 43 -18 61 2 8 9 8 10 -2 4
-9 -4 -15 0 -19 14 -6 24 -16 27 -30 9z"/>
<path d="M17204 7589 c-3 -6 0 -15 7 -20 8 -5 10 -9 4 -9 -5 0 -19 -13 -29
-28 l-19 -27 31 29 c22 20 29 33 22 41 -5 7 -7 15 -3 18 3 4 4 7 0 7 -3 0 -9
-5 -13 -11z"/>
<path d="M16821 7513 c-14 -29 -14 -33 -1 -33 6 0 10 8 10 18 0 14 3 13 18 -6
14 -18 24 -22 44 -17 40 10 23 48 -25 56 -30 5 -37 2 -46 -18z"/>
<path d="M16860 7395 c0 -18 6 -29 20 -32 23 -6 27 -44 9 -89 -10 -28 -10 -28
10 -10 11 10 18 23 15 28 -3 4 0 7 6 6 7 -2 14 4 15 12 2 8 6 31 10 51 6 34 5
37 -22 41 -15 3 -36 9 -45 13 -15 6 -18 2 -18 -20z"/>
<path d="M8049 7363 c-13 -16 -12 -17 4 -4 9 7 17 15 17 17 0 8 -8 3 -21 -13z"/>
<path d="M16830 7305 c0 -14 5 -25 10 -25 6 0 10 11 10 25 0 14 -4 25 -10 25
-5 0 -10 -11 -10 -25z"/>
<path d="M16758 7216 c-3 -14 -2 -26 3 -26 14 0 20 20 11 36 -8 14 -10 12 -14
-10z"/>
<path d="M16834 7218 l-19 -23 23 19 c21 18 27 26 19 26 -2 0 -12 -10 -23 -22z"/>
<path d="M3605 6660 c10 -11 15 -20 11 -20 -4 0 -2 -9 4 -20 6 -11 16 -18 21
-14 6 3 9 0 7 -8 -2 -7 2 -13 7 -13 13 0 10 8 -21 55 -15 22 -31 40 -37 40 -6
0 -2 -9 8 -20z"/>
<path d="M21245 6450 c-10 -11 -16 -22 -13 -25 3 -3 13 4 23 15 10 11 16 22
13 25 -3 3 -13 -4 -23 -15z"/>
<path d="M11910 6379 c-19 -11 -28 -19 -19 -19 25 0 79 21 79 31 0 13 -20 9
-60 -12z"/>
<path d="M11806 6325 c-22 -17 -17 -29 8 -19 9 3 16 12 16 20 0 17 0 17 -24
-1z"/>
<path d="M3880 6254 c0 -8 5 -12 10 -9 6 4 8 11 5 16 -9 14 -15 11 -15 -7z"/>
<path d="M11700 6251 c0 -5 9 -7 20 -4 11 3 20 7 20 9 0 2 -9 4 -20 4 -11 0
-20 -4 -20 -9z"/>
<path d="M3900 6227 c0 -8 7 -14 15 -14 11 0 12 4 4 14 -6 7 -13 13 -15 13 -2
0 -4 -6 -4 -13z"/>
<path d="M11630 6194 c0 -14 3 -14 15 -4 8 7 15 14 15 16 0 2 -7 4 -15 4 -8 0
-15 -7 -15 -16z"/>
<path d="M9970 6160 c-13 -8 -12 -10 3 -10 9 0 17 5 17 10 0 12 -1 12 -20 0z"/>
<path d="M11577 6153 c-12 -12 -7 -43 7 -43 13 0 26 20 26 41 0 10 -23 12 -33
2z"/>
<path d="M4195 5840 c-3 -5 -5 -10 -3 -11 33 -8 38 -7 27 7 -14 17 -16 17 -24
4z"/>
<path d="M6432 3764 c10 -10 20 -16 22 -13 3 3 -5 11 -17 18 -21 13 -21 12 -5
-5z"/>
<path d="M6630 3626 c0 -2 7 -7 16 -10 8 -3 12 -2 9 4 -6 10 -25 14 -25 6z"/>
<path d="M7670 2900 c0 -19 3 -21 12 -12 9 9 9 15 0 24 -9 9 -12 7 -12 -12z"/>
<path d="M16730 2740 c-8 -5 -10 -10 -5 -10 6 0 17 5 25 10 8 5 11 10 5 10 -5
0 -17 -5 -25 -10z"/>
<path d="M16560 2670 c-13 -8 -13 -10 2 -10 9 0 20 5 23 10 8 13 -5 13 -25 0z"/>
<path d="M16515 2650 c-16 -7 -17 -9 -3 -9 9 -1 20 4 23 9 7 11 7 11 -20 0z"/>
<path d="M16383 2598 c-13 -6 -23 -15 -23 -20 0 -7 31 8 59 29 10 7 -16 1 -36
-9z"/>
<path d="M16293 2563 c-24 -8 -43 -19 -43 -25 0 -6 6 -6 15 2 8 7 15 10 15 7
0 -3 12 0 27 8 15 8 30 12 35 9 4 -3 8 0 8 5 0 14 -5 13 -57 -6z"/>
<path d="M15940 2430 c0 -5 7 -10 16 -10 8 0 12 5 9 10 -3 6 -10 10 -16 10 -5
0 -9 -4 -9 -10z"/>
</g>
</svg>
