<svg width="155" height="38" viewBox="0 0 155 38" fill="none" xmlns="http://www.w3.org/2000/svg">
<path d="M1.78435 0.652173V18H6.39391V11.4822H12.5648V7.69043H6.39391V4.7413H12.8126V0.652173H1.78435ZM15.7701 0.652173V12.3C15.7701 16.9343 19.0662 18.8426 23.0562 18.8426C27.0709 18.8426 30.367 16.9343 30.367 12.3V0.652173H25.5592V11.9035C25.5592 13.4896 24.7414 14.5552 23.0562 14.5552C21.3957 14.5552 20.5779 13.4896 20.5779 11.9035V0.652173H15.7701ZM33.8033 0.652173V18H45.6246V13.9109H38.6111V0.652173H33.8033ZM47.4531 0.652173V18H59.2744V13.9109H52.2609V0.652173H47.4531ZM72.8202 9.32609C72.8202 6.37696 75.0259 4.7413 77.628 4.7413C80.0815 4.7413 81.5685 5.83174 82.6837 6.97174V1.91609C81.2959 0.899999 79.8337 0.206086 77.3059 0.206086C71.5067 0.206086 67.5415 3.84913 67.5415 9.32609C67.5415 14.803 71.5067 18.4461 77.3059 18.4461C79.8337 18.4461 81.2959 17.7522 82.6837 16.7361V11.6804C81.5685 12.8204 80.0815 13.9109 77.628 13.9109C75.0259 13.9109 72.8202 12.2752 72.8202 9.32609ZM86.0065 0.652173V18H90.9134V0.652173H86.0065ZM94.4771 0.652173V18H99.2849V12.2504H100.301L103.721 18H109.322L104.985 11.6061C107.215 10.6643 108.281 8.80565 108.281 6.4513C108.281 3.05609 106.026 0.652173 101.292 0.652173H94.4771ZM100.896 4.71652C102.408 4.71652 103.275 5.43522 103.275 6.64956C103.275 7.8887 102.408 8.60739 100.896 8.60739H99.2849V4.71652H100.896ZM115.44 9.32609C115.44 6.37696 117.645 4.7413 120.247 4.7413C122.701 4.7413 124.188 5.83174 125.303 6.97174V1.91609C123.915 0.899999 122.453 0.206086 119.925 0.206086C114.126 0.206086 110.161 3.84913 110.161 9.32609C110.161 14.803 114.126 18.4461 119.925 18.4461C122.453 18.4461 123.915 17.7522 125.303 16.7361V11.6804C124.188 12.8204 122.701 13.9109 120.247 13.9109C117.645 13.9109 115.44 12.2752 115.44 9.32609ZM128.626 0.652173V18H140.447V13.9109H133.434V0.652173H128.626ZM142.276 0.652173V18H154.295V14.1091H146.885V10.8626H153.8V7.09565H146.885V4.54304H154.295V0.652173H142.276Z" fill="white"/>
<path d="M6.68139 37.2379C10.0518 37.2379 12.2922 35.5527 12.2922 32.7176C12.2922 30.0807 10.3096 29.0497 7.11757 28.3558C5.19444 27.9197 4.71861 27.6421 4.71861 27.0077C4.71861 26.4723 5.17461 26.0758 6.10644 26.0758C7.33565 26.0758 8.72348 26.5517 9.99235 27.4438L11.9155 24.7277C10.4087 23.5183 8.56487 22.8838 6.20557 22.8838C2.87478 22.8838 0.832696 24.7475 0.832696 27.3249C0.832696 30.2195 3.1127 31.0522 6.06678 31.7263C7.95026 32.1624 8.40626 32.4797 8.40626 33.0546C8.40626 33.689 7.85113 34.0459 6.82017 34.0459C5.21426 34.0459 3.68765 33.471 2.31965 32.3805L0.178435 34.9381C1.88348 36.4647 4.22296 37.2379 6.68139 37.2379ZM18.0828 37.0991H21.6515L27.2821 23.1217H23.0591L19.9068 31.9047L16.7544 23.1217H12.4522L18.0828 37.0991ZM32.0159 37H35.8621V26.4922H40.0256V23.1217H27.8524V26.4922H32.0159V37ZM46.2343 37.0991H49.803L55.4336 23.1217H51.2106L48.0583 31.9047L44.9059 23.1217H40.6037L46.2343 37.0991ZM58.7795 37H62.5663V23.0226H59.7709L55.7065 24.1725L56.4401 27.1464L58.7795 26.6111V37Z" fill="white" fill-opacity="0.5"/>
</svg>
